<?xml version="1.0" encoding="utf-8"?>
<!-- Generator: Adobe Illustrator 19.0.0, SVG Export Plug-In . SVG Version: 6.00 Build 0)  -->
<svg version="1.1" id="Layer_1" xmlns="http://www.w3.org/2000/svg" xmlns:xlink="http://www.w3.org/1999/xlink" x="0px" y="0px"
	 viewBox="-432 234 94 94" style="enable-background:new -432 234 94 94;" xml:space="preserve">
<style type="text/css">
	.st0{fill:#FFE600;}
	.st1{fill:#FFFFFF;}
</style>
<g>
	<path class="st0" d="M-346.2,281c0,0,0-0.7-0.1-2.1c-0.1-0.7,0-1.5-0.2-2.5c-0.1-1-0.3-2.1-0.5-3.3c-0.3-1.2-0.6-2.6-1-4
		c-0.3-0.7-0.5-1.5-0.8-2.2c-0.1-0.4-0.3-0.8-0.4-1.2c-0.2-0.4-0.4-0.8-0.6-1.2c-1.4-3.2-3.6-6.6-6.5-9.8c-2.9-3.2-6.6-6.2-10.9-8.5
		c-4.4-2.3-9.5-3.9-14.9-4.3c-0.7,0-1.4-0.1-2-0.1l-1-0.1c-0.3,0-0.7,0-1,0c-0.7,0-1.4,0.1-2.1,0.1c-0.3,0-0.7,0-1,0.1l-1,0.2
		c-1.4,0.2-2.8,0.3-4.1,0.8l-2.1,0.5c-0.7,0.2-1.3,0.5-2,0.7c-5.4,1.9-10.4,5-14.5,9.1c-4.1,4.1-7.3,9.1-9.2,14.5
		c-2,5.4-2.7,11.1-2.3,16.5c0.4,5.4,1.9,10.6,4.2,15c2.3,4.5,5.3,8.2,8.5,11.1c3.2,2.9,6.6,5.2,9.9,6.6c0.4,0.2,0.8,0.4,1.2,0.6
		c0.4,0.2,0.8,0.3,1.2,0.4c0.8,0.3,1.5,0.6,2.3,0.8c1.5,0.4,2.9,0.8,4.1,1.1c1.3,0.2,2.4,0.4,3.4,0.5c1,0.2,1.8,0.1,2.5,0.2
		c1.4,0.1,2.1,0.1,2.1,0.1s-0.7,0-2.1-0.1c-0.7-0.1-1.5,0-2.5-0.2c-1-0.1-2.1-0.3-3.4-0.5c-1.2-0.3-2.6-0.6-4.1-1.1
		c-0.7-0.3-1.5-0.5-2.3-0.8c-0.4-0.1-0.8-0.3-1.2-0.4c-0.4-0.2-0.8-0.4-1.2-0.6c-3.3-1.4-6.7-3.6-10-6.6c-3.3-2.9-6.3-6.7-8.7-11.1
		c-2.3-4.5-3.9-9.6-4.4-15.1c-0.5-5.5,0.2-11.3,2.2-16.7c1.9-5.5,5.1-10.6,9.3-14.8c4.2-4.2,9.3-7.4,14.7-9.4
		c0.7-0.2,1.4-0.5,2.1-0.7c0.7-0.2,1.4-0.4,2.1-0.5c1.4-0.4,2.8-0.6,4.2-0.8l1.1-0.2l1.1-0.1c0.7,0,1.4-0.1,2.1-0.1
		c0.4,0,0.7,0,1.1-0.1l1,0c0.7,0,1.4,0.1,2.1,0.1c5.5,0.4,10.8,2,15.3,4.3c4.5,2.3,8.3,5.4,11.3,8.7c3,3.3,5.3,6.7,6.7,10
		c0.2,0.4,0.4,0.8,0.6,1.2c0.2,0.4,0.3,0.8,0.5,1.2c0.3,0.8,0.6,1.6,0.8,2.3c0.5,1.5,0.8,2.9,1.1,4.2c0.2,1.3,0.4,2.5,0.5,3.5
		c0.2,1,0.1,1.8,0.2,2.5c0.1,1.4,0.1,2.1,0.1,2.1L-346.2,281z"/>
</g>
<g>
	<polygon class="st0" points="-350.4,292.2 -348.4,291.3 -347.5,293.3 -346.8,294.8 -346,292.6 -347.6,289.1 -351.1,290.7 
		-351.9,292.8 	"/>
	<g>
		<path class="st1" d="M-355.9,286.1l-1.6,4.2l5.2,7.8l-1.9,0.9l-0.8,2.1l1.5-0.7l2-0.9l0.9,2l0.7,1.5l0.8-2.1l-0.9-1.9l9.1-2.5
			l1.6-4.2l-9.3,4.2l0.7-1.7l-1-2.1l-2.1,0.9l-0.7,1.7L-355.9,286.1z M-348.9,296.6l-1.8,0.8l-0.8-1.8l1.8-0.8L-348.9,296.6z"/>
		<polygon class="st1" points="-347.1,287.7 -346.1,289.7 -346.1,289.7 -345.3,287.6 -346.2,285.5 -348.4,286.4 -349.2,288.6 
			-349.1,288.5 		"/>
	</g>
</g>
</svg>
