<?xml version="1.0" encoding="utf-8"?>
<!-- Generator: Adobe Illustrator 19.0.0, SVG Export Plug-In . SVG Version: 6.00 Build 0)  -->
<svg version="1.1" id="Layer_1" xmlns="http://www.w3.org/2000/svg" xmlns:xlink="http://www.w3.org/1999/xlink" x="0px" y="0px"
	 viewBox="-432 234 94 94" style="enable-background:new -432 234 94 94;" xml:space="preserve">
<style type="text/css">
	.st0{fill:#FFE600;}
	.st1{fill:#FFFFFF;}
</style>
<g>
	<path class="st0" d="M-346.6,281.1c0,0,0-0.7-0.1-2.1c0-0.3,0-0.7-0.1-1.1c0-0.4,0-0.9-0.1-1.3c-0.1-0.9-0.3-2-0.5-3.2
		c-0.3-1.2-0.6-2.5-1-4c-0.3-0.7-0.5-1.4-0.8-2.2c-0.1-0.4-0.3-0.8-0.4-1.2c-0.2-0.4-0.4-0.8-0.5-1.2c-1.4-3.2-3.5-6.5-6.4-9.7
		c-2.8-3.2-6.5-6.2-10.8-8.5c-4.3-2.3-9.4-3.9-14.7-4.3c-0.7,0-1.3-0.1-2-0.1l-1-0.1c-0.3,0-0.7,0-1,0c-0.7,0-1.4,0.1-2.1,0.1
		c-0.3,0-0.7,0-1,0.1l-1,0.2c-1.4,0.2-2.7,0.3-4.1,0.7l-2,0.5c-0.7,0.2-1.3,0.5-2,0.7c-5.3,1.9-10.3,5-14.5,9
		c-4.1,4.1-7.3,9-9.2,14.4c-2,5.3-2.7,11-2.3,16.4c0.4,5.4,1.9,10.5,4.2,15c2.3,4.4,5.3,8.2,8.5,11.1c3.2,2.9,6.6,5.2,9.8,6.6
		c0.4,0.2,0.8,0.4,1.2,0.6c0.4,0.2,0.8,0.3,1.2,0.4c0.8,0.3,1.5,0.6,2.2,0.8c1.5,0.4,2.8,0.8,4.1,1.1c1.3,0.2,2.4,0.4,3.4,0.5
		c1,0.2,1.8,0.1,2.5,0.2c1.4,0.1,2.1,0.1,2.1,0.1s-0.7,0-2.1-0.1c-0.7-0.1-1.5,0-2.5-0.2c-1-0.1-2.1-0.3-3.4-0.5
		c-1.2-0.3-2.6-0.6-4.1-1.1c-0.7-0.3-1.5-0.5-2.3-0.8c-0.4-0.1-0.8-0.3-1.2-0.4c-0.4-0.2-0.8-0.4-1.2-0.6c-3.3-1.4-6.7-3.6-10-6.6
		c-3.3-2.9-6.4-6.7-8.7-11.1c-2.4-4.5-4-9.7-4.4-15.2c-0.5-5.5,0.2-11.3,2.2-16.8c1.9-5.5,5.1-10.6,9.3-14.9
		c4.2-4.2,9.3-7.5,14.8-9.5c0.7-0.2,1.4-0.5,2.1-0.7c0.7-0.2,1.4-0.4,2.1-0.6c1.4-0.4,2.8-0.6,4.3-0.8l1.1-0.2l1.1-0.1
		c0.7,0,1.4-0.1,2.1-0.1c0.4,0,0.7,0,1.1-0.1l1.1,0c0.7,0,1.4,0.1,2.1,0.1c5.6,0.4,10.9,2,15.4,4.3c4.6,2.3,8.4,5.4,11.4,8.7
		c3,3.3,5.3,6.8,6.8,10.1c0.2,0.4,0.4,0.8,0.6,1.2c0.2,0.4,0.3,0.8,0.5,1.2c0.3,0.8,0.6,1.6,0.9,2.3c0.5,1.5,0.8,2.9,1.1,4.2
		c0.2,1.3,0.4,2.5,0.6,3.5c0.2,1,0.1,1.8,0.2,2.5c0.1,1.4,0.1,2.1,0.1,2.1L-346.6,281.1z"/>
</g>
<g>
	<polygon class="st0" points="-350.4,292.1 -348.3,291.3 -347.5,293.4 -346.8,294.9 -345.9,292.8 -347.4,289.2 -351,290.6 
		-351.9,292.7 	"/>
	<g>
		<path class="st1" d="M-355.5,285.7l-1.8,4.2l4.8,8.1l-2,0.8l-0.9,2.1l1.5-0.6l2.1-0.8l0.8,2.1l0.6,1.5l0.9-2.1l-0.8-2l9.2-2
			l1.8-4.2l-9.5,3.7l0.7-1.7l-0.9-2.1l-2.2,0.8l-0.7,1.7L-355.5,285.7z M-349,296.6l-1.9,0.7l-0.8-1.9l1.9-0.7L-349,296.6z"/>
		<polygon class="st1" points="-346.8,287.8 -345.9,289.8 -345.9,289.9 -345,287.8 -345.8,285.7 -348,286.5 -348.9,288.6 
			-348.8,288.6 		"/>
	</g>
</g>
</svg>
