<?xml version="1.0" encoding="utf-8"?>
<!-- Generator: Adobe Illustrator 23.0.1, SVG Export Plug-In . SVG Version: 6.00 Build 0)  -->
<svg version="1.1" id="Layer_1" xmlns="http://www.w3.org/2000/svg" xmlns:xlink="http://www.w3.org/1999/xlink" x="0px" y="0px"
	 viewBox="0 0 2100 600" style="enable-background:new 0 0 2100 600;" xml:space="preserve">
<style type="text/css">
	.st0{fill:#FFE600;}
	.st1{fill:#FFFFFF;}
</style>
<g>
	<g>
		<polygon class="st0" points="353.7,339.1 300,391.5 246.3,339.1 206.6,300.3 206.6,377.8 300,469 393.4,377.8 393.4,300.3 		"/>
		<g>
			<path class="st1" d="M600,467.8V314L341.8,127.9l51.6-50.3V0l-39.7,38.8L300,91.2l-53.7-52.4L206.6,0v77.5l51.6,50.3L0,314v153.8
				l244-242.5V288l56,54.7l56-54.7v-62.7L600,467.8z M251.5,217.8l48.5-47.3l48.5,47.3L300,265.1L251.5,217.8z"/>
			<polygon class="st1" points="300,522.5 246.3,470 244,467.8 244,545.3 300,600 356,545.3 356,467.8 353.7,470 			"/>
		</g>
	</g>
	<g>
		<path class="st1" d="M953.7,245.2h26.7l-83.1,219.7h-26.7l-53.8-142.7l-54.1,142.7h-26.4l-83.1-219.7h26.4l69.9,184.6L803.3,287
			H830l53.8,142.7L953.7,245.2z"/>
		<path class="st1" d="M1092.5,307.7h24.8v157.2h-24.8v-21.3c-13.9,13.2-32.9,21.3-53.5,21.3c-43.5,0-78.6-35.1-78.6-78.6
			s35.1-78.6,78.6-78.6c20.6,0,39.6,8.1,53.5,21.3V307.7z M1092.5,386.3c0-29.6-23.8-53.8-53.5-53.8c-29.6,0-53.8,24.2-53.8,53.8
			c0,29.6,24.2,53.8,53.8,53.8C1068.6,440,1092.5,415.9,1092.5,386.3z"/>
		<path class="st1" d="M1280.4,373v91.8h-24.8V373c-0.6-22.2-18.7-40.6-41.2-40.6s-40.9,18.4-41.2,40.6v91.8h-24.8V307.7h24.8v14.5
			c11.3-9,25.5-14.5,41.2-14.5C1250.5,307.7,1280.1,337,1280.4,373z"/>
		<path class="st0" d="M1471.7,404.9c-1.3,33.8-37.7,61.2-84.4,61.2c-36.7,0-68-16.8-79.6-40.3c-5.8-10.6-7.1-20-7.1-20h26.7
			c1,16.8,25.1,35.1,59.9,35.1c35.1,0,58.6-19,59.6-36.1c1-13.9-10-25.8-30-31.2c-30-7.7-52.5-6.1-78.3-17.4
			c-21.9-11-36.1-29.3-36.1-49.9c0-33.8,38-61.2,84.7-61.2c33.5,0,62.5,14.2,76,34.5c5.8,9.3,7.1,18.4,7.1,18.4H1445
			c-6.1-14.5-28.3-28-57.7-28c-35.4,0-59.9,19.3-59.9,36.4c0,21.6,31.9,31.9,33.2,32.2c16.4,4.8,55.4,11,70.9,15.1
			c1.9,0.3,6.4,2.3,7.7,2.6C1456.3,363.1,1472.7,381.1,1471.7,404.9z"/>
		<path class="st0" d="M1721.7,307.7h26.4l-57.7,157.2H1664l-48-130.5l-48,130.5h-26.4l-57.7-157.2h26.4l44.5,121.1l44.5-121.1h33.5
			l44.5,121.1L1721.7,307.7z"/>
		<path class="st0" d="M1887.2,307.7h24.8v157.2h-24.8v-21.3c-13.9,13.2-32.9,21.3-53.5,21.3c-43.5,0-78.6-35.1-78.6-78.6
			s35.1-78.6,78.6-78.6c20.6,0,39.6,8.1,53.5,21.3V307.7z M1887.2,386.3c0-29.6-23.8-53.8-53.5-53.8c-29.6,0-53.8,24.2-53.8,53.8
			c0,29.6,24.2,53.8,53.8,53.8C1863.4,440,1887.2,415.9,1887.2,386.3z"/>
		<path class="st0" d="M2100,386.3c0,43.5-35.1,78.6-78.3,78.6c-20.9,0-39.6-8.1-53.8-21.3v106h-24.8V386.3v-78.6h24.8V329
			c14.2-13.2,32.9-21.3,53.8-21.3C2064.9,307.7,2100,342.8,2100,386.3z M2075.2,386.3c0-29.6-24.2-53.8-53.5-53.8
			c-29.6,0-53.8,24.2-53.8,53.8c0,29.6,24.2,53.8,53.8,53.8C2051,440,2075.2,415.9,2075.2,386.3z"/>
	</g>
</g>
</svg>
