<?xml version="1.0" encoding="utf-8"?>
<!-- Generator: Adobe Illustrator 23.0.1, SVG Export Plug-In . SVG Version: 6.00 Build 0)  -->
<svg version="1.1" id="Layer_1" xmlns="http://www.w3.org/2000/svg" xmlns:xlink="http://www.w3.org/1999/xlink" x="0px" y="0px"
	 viewBox="0 0 333 100" style="enable-background:new 0 0 333 100;" xml:space="preserve">
<style type="text/css">
	.st0{fill:#FFFFFF;}
	.st1{fill:#41BEEC;}
</style>
<g>
	<g>
		<polygon class="st0" points="11.5,29 11.4,29 41.8,11.3 72.3,29 83.7,24.3 41.8,0 0,24.3 0.1,24.3 0.1,36.1 72.3,71 41.8,88.7 
			11.4,71 0,75.7 41.8,100 83.7,75.7 83.8,63.8 		"/>
		<polygon class="st1" points="72.4,32 83.7,27.5 83.7,60.3 72.4,55.1 		"/>
		<polygon class="st1" points="11.4,67.9 0,72.4 0,39.6 11.4,44.9 		"/>
	</g>
	<g>
		<g>
			<path class="st0" d="M124.9,40.5h6.9v19.8h7.4V40.5h6.9v25.2h-25.3c-4.6,0-6.7-0.6-8.3-2.3c-1.4-1.6-2.3-4-2.3-6.8V40.5h6.9v15
				c0,2.5,0.2,3.2,0.9,3.9c0.7,0.7,1.8,1,3.2,1h3.7V40.5z"/>
			<path class="st0" d="M168.9,50.4c0-3.6-1.1-4.5-5.3-4.5H152v-5.4h11.6c4.2,0,5.1,0.1,6.7,0.6c2.2,0.7,4,2.7,4.8,5.3
				c0.5,1.5,0.6,2.4,0.6,5.1v14.2h-14.5c-5.4,0-6.6-0.2-8.2-1.3c-1.9-1.3-2.9-3.6-2.9-6.1c0-3.5,1.9-6.4,4.6-7.3
				c1.1-0.4,3.1-0.6,5.7-0.6H168.9z M160.9,55.8c-1.6,0-1.6,0-2.2,0.2c-0.9,0.3-1.5,1.1-1.5,2.2c0,1.6,1,2.2,3.7,2.2h8v-4.6H160.9z"
				/>
			<path class="st0" d="M194.4,40.5c4,0,5.7,0.5,7.4,2c1.8,1.7,2.6,4.1,2.6,7.7v15.5h-6.9V49.4c0-2.5-1-3.5-3.6-3.5h-6v19.8h-6.9
				V40.5H194.4z"/>
			<path class="st0" d="M231.7,45.9h-12.3c-3.1,0-3.8,0.4-3.8,2.2c0,0.9,0.4,1.7,1.2,2.1c0.5,0.3,1.3,0.4,3.3,0.4h4.1
				c5.5,0,8.6,2.6,8.6,7.2c0,3.1-1.7,6.2-4.1,7.3c-1,0.5-2.8,0.7-5.6,0.7h-14.3v-5.4h12.3c1.7,0,2.7-0.1,3.2-0.1
				c1.1-0.2,1.7-0.9,1.7-2c0-1-0.5-1.9-1.3-2.2c-0.5-0.3-1.2-0.3-2.9-0.3h-4.2c-3.3,0-4.8-0.4-6.3-1.6c-1.8-1.3-2.8-3.7-2.8-6.3
				c0-2.5,1.1-4.8,2.9-6.2c1.2-0.9,2.7-1.2,5.6-1.2h14.7V45.9z"/>
			<path class="st0" d="M251.4,40.5h6.9v19.8h7.4V40.5h6.9v25.2h-25.3c-4.6,0-6.7-0.6-8.3-2.3c-1.4-1.6-2.3-4-2.3-6.8V40.5h6.9v15
				c0,2.5,0.2,3.2,0.9,3.9c0.7,0.7,1.8,1,3.2,1h3.7V40.5z"/>
			<path class="st0" d="M295.4,50.4c0-3.6-1.1-4.5-5.3-4.5h-11.6v-5.4h11.6c4.2,0,5.1,0.1,6.7,0.6c2.2,0.7,4,2.7,4.8,5.3
				c0.5,1.5,0.6,2.4,0.6,5.1v14.2h-14.5c-5.4,0-6.6-0.2-8.2-1.3c-1.9-1.3-2.9-3.6-2.9-6.1c0-3.5,1.9-6.4,4.6-7.3
				c1.1-0.4,3.1-0.6,5.7-0.6H295.4z M287.4,55.8c-1.6,0-1.6,0-2.2,0.2c-0.9,0.3-1.5,1.1-1.5,2.2c0,1.6,1,2.2,3.7,2.2h8v-4.6H287.4z"
				/>
			<path class="st0" d="M319.8,40.5c4.7,0,6.6,0.5,8.8,2.2c2.9,2.3,4.5,6,4.5,10.8c0,3.6-1.1,6.7-3.3,9c-2.2,2.3-4.8,3.3-9,3.3h-6.1
				v9.5h-6.9V40.5H319.8z M314.6,60.4h4.2c4.7,0,7.1-2.4,7.1-7.4c0-4.6-2.4-7.1-6.6-7.1h-4.7V60.4z"/>
		</g>
	</g>
</g>
</svg>
