<svg width="24" height="24" viewBox="0 0 24 24" fill="none" xmlns="http://www.w3.org/2000/svg">
<g id="Analytics">
<path id="Vector 1 (Stroke)" fill-rule="evenodd" clip-rule="evenodd" d="M18.4891 6.12781C18.9708 6.39791 19.1423 7.00739 18.8722 7.48912L13.9244 16.3135C13.7926 16.5487 13.5713 16.7207 13.3109 16.7904C13.0505 16.8602 12.7729 16.8218 12.5412 16.684L7.9691 13.9661L4.87224 19.4891C4.60213 19.9709 3.99264 20.1424 3.51092 19.8723C3.02919 19.6022 2.85765 18.9927 3.12776 18.511L6.72624 12.0933C6.8581 11.8581 7.07933 11.6862 7.33975 11.6164C7.60018 11.5467 7.87774 11.585 8.10948 11.7228L12.6815 14.4408L17.1277 6.51099C17.3979 6.02926 18.0073 5.85771 18.4891 6.12781Z" fill="none"/>
<path id="Vector 2 (Stroke)" fill-rule="evenodd" clip-rule="evenodd" d="M18.9115 4.51136C19.4152 4.43464 19.8961 4.74896 20.028 5.24114L21.4921 10.7052C21.635 11.2387 21.3184 11.787 20.785 11.93C20.2515 12.0729 19.7032 11.7563 19.5602 11.2229L18.3278 6.62332L12.8825 7.45266C12.3365 7.53582 11.8265 7.16062 11.7433 6.61463C11.6602 6.06864 12.0354 5.55862 12.5814 5.47546L18.9115 4.51136Z" fill="none"/>
</g>
</svg>
