<svg width="375" height="667" viewBox="0 0 375 667" fill="none" xmlns="http://www.w3.org/2000/svg">
<g id="&#230;&#137;&#139;&#230;&#156;&#186;&#231;&#171;&#175;BG">
<rect id="Rectangle 86" width="375" height="667" fill="black"/>
<mask id="mask0_419_44949" style="mask-type:alpha" maskUnits="userSpaceOnUse" x="0" y="0" width="375" height="667">
<rect id="Rectangle 87" width="375" height="667" fill="black"/>
</mask>
<g mask="url(#mask0_419_44949)">
<g id="BG">
<rect id="Rectangle 70" x="-314" y="-241" width="1920" height="1080" fill="black"/>
<rect id="Rectangle 72" opacity="0.5" x="-554" y="590" width="1080" height="1080" fill="url(#paint0_radial_419_44949)"/>
<rect id="Rectangle 75" opacity="0.3" x="-181" y="333" width="334" height="334" fill="url(#paint1_radial_419_44949)"/>
<rect id="Rectangle 78" opacity="0.3" x="165" y="43" width="418" height="418" fill="url(#paint2_radial_419_44949)"/>
<mask id="mask1_419_44949" style="mask-type:alpha" maskUnits="userSpaceOnUse" x="-314" y="-241" width="1920" height="1080">
<rect id="Rectangle 71" x="-314" y="-241" width="1920" height="1080" fill="black"/>
</mask>
<g mask="url(#mask1_419_44949)">
<g id="Group 56770">
<path id="Vector" d="M76.4438 482.801V451.858L103.224 436.443L129.891 451.858V482.801L103.224 498.217L76.4438 482.801Z" fill="#070707"/>
<path id="Vector_2" d="M76.4438 580.425V549.482L103.224 534.066L129.891 549.482V580.425L103.224 595.84L76.4438 580.425Z" fill="#070707"/>
<path id="Vector_3" d="M-35.2881 579.974V549.144L-8.50834 533.728L18.2714 549.144V579.974L-8.50834 595.502L-35.2881 579.974Z" fill="#070707"/>
<path id="Vector_4" d="M20.5219 579.974V549.144L47.1891 533.728L73.9688 549.144V579.974L47.1891 595.502L20.5219 579.974Z" fill="#070707"/>
<path id="Vector_5" d="M20.5219 675.616V644.785L47.1891 629.37L73.9688 644.785V675.616L47.1891 691.143L20.5219 675.616Z" fill="#070707"/>
<path id="Vector_6" d="M131.917 579.974V549.144L158.697 533.728L185.476 549.144V579.974L158.697 595.502L131.917 579.974Z" fill="#070707"/>
<path id="Vector_7" d="M131.917 675.616V644.785L158.697 629.37L185.476 644.785V675.616L158.697 691.143L131.917 675.616Z" fill="#070707"/>
<path id="Vector_8" d="M187.727 579.974V549.144L214.506 533.728L241.174 549.144V579.974L214.506 595.502L187.727 579.974Z" fill="#070707"/>
<path id="Vector_9" d="M243.424 579.974V549.144L270.204 533.728L296.983 549.144V579.974L270.204 595.502L243.424 579.974Z" fill="#070707"/>
<path id="Vector_10" d="M243.424 675.616V644.785L270.204 629.37L296.983 644.785V675.616L270.204 691.143L243.424 675.616Z" fill="#070707"/>
<path id="Vector_11" d="M299.234 579.974V549.144L325.901 533.728L352.681 549.144V579.974L325.901 595.502L299.234 579.974Z" fill="#070707"/>
<path id="Vector_12" d="M354.931 579.974V549.144L381.711 533.728L408.378 549.144V579.974L381.711 595.502L354.931 579.974Z" fill="#070707"/>
<path id="Vector_13" d="M354.931 675.616V644.785L381.711 629.37L408.378 644.785V675.616L381.711 691.143L354.931 675.616Z" fill="#070707"/>
<path id="Vector_14" d="M-7.38342 627.795V596.965L19.3963 581.549L46.0635 596.965V627.795L19.3963 643.323L-7.38342 627.795Z" fill="#070707"/>
<path id="Vector_15" d="M104.124 627.795V596.965L130.791 581.549L157.571 596.965V627.795L130.791 643.323L104.124 627.795Z" fill="#070707"/>
<path id="Vector_16" d="M215.631 627.795V596.965L242.299 581.549L269.078 596.965V627.795L242.299 643.323L215.631 627.795Z" fill="#070707"/>
<path id="Vector_17" d="M327.026 627.795V596.965L353.806 581.549L380.586 596.965V627.795L353.806 643.323L327.026 627.795Z" fill="#070707"/>
<path id="Vector_18" d="M48.3143 627.345V596.402L75.0941 580.987L101.874 596.402V627.345L75.0941 642.76L48.3143 627.345Z" fill="#070707"/>
<path id="Vector_19" d="M159.821 627.345V596.402L186.601 580.987L213.381 596.402V627.345L186.601 642.76L159.821 627.345Z" fill="#070707"/>
<path id="Vector_20" d="M271.329 627.345V596.402L298.109 580.987L324.776 596.402V627.345L298.109 642.76L271.329 627.345Z" fill="#070707"/>
<path id="Vector_21" d="M48.3143 531.14V500.198L75.0941 484.782L101.874 500.198V531.14L75.0941 546.556L48.3143 531.14Z" fill="#070707"/>
<path id="Vector_22" d="M159.821 531.14V500.198L186.601 484.782L213.381 500.198V531.14L186.601 546.556L159.821 531.14Z" fill="#070707"/>
<path id="Vector_23" d="M271.329 531.14V500.198L298.109 484.782L324.776 500.198V531.14L298.109 546.556L271.329 531.14Z" fill="#070707"/>
</g>
<g id="Group 56771">
<path id="Vector_24" d="M76.4438 1.61408V-29.3289L103.224 -44.7441L129.891 -29.3289V1.61408L103.224 17.0293L76.4438 1.61408Z" fill="#070707"/>
<path id="Vector_25" d="M-35.2881 1.16354V-29.6669L-8.50834 -45.0822L18.2714 -29.6669V1.16354L-8.50834 16.6913L-35.2881 1.16354Z" fill="#070707"/>
<path id="Vector_26" d="M20.5219 1.16354V-29.6669L47.1891 -45.0822L73.9688 -29.6669V1.16354L47.1891 16.6913L20.5219 1.16354Z" fill="#070707"/>
<path id="Vector_27" d="M20.5219 96.8053V65.9748L47.1891 50.5596L73.9688 65.9748V96.8053L47.1891 112.333L20.5219 96.8053Z" fill="#070707"/>
<path id="Vector_28" d="M131.917 1.16354V-29.6669L158.697 -45.0822L185.476 -29.6669V1.16354L158.697 16.6913L131.917 1.16354Z" fill="#070707"/>
<path id="Vector_29" d="M131.917 96.8053V65.9748L158.697 50.5596L185.476 65.9748V96.8053L158.697 112.333L131.917 96.8053Z" fill="#070707"/>
<path id="Vector_30" d="M187.727 1.16354V-29.6669L214.506 -45.0822L241.174 -29.6669V1.16354L214.506 16.6913L187.727 1.16354Z" fill="#070707"/>
<path id="Vector_31" d="M243.424 1.16354V-29.6669L270.204 -45.0822L296.983 -29.6669V1.16354L270.204 16.6913L243.424 1.16354Z" fill="#070707"/>
<path id="Vector_32" d="M243.424 96.8053V65.9748L270.204 50.5596L296.983 65.9748V96.8053L270.204 112.333L243.424 96.8053Z" fill="#070707"/>
<path id="Vector_33" d="M299.234 1.16354V-29.6669L325.901 -45.0822L352.681 -29.6669V1.16354L325.901 16.6913L299.234 1.16354Z" fill="#070707"/>
<path id="Vector_34" d="M354.931 1.16354V-29.6669L381.711 -45.0822L408.378 -29.6669V1.16354L381.711 16.6913L354.931 1.16354Z" fill="#070707"/>
<path id="Vector_35" d="M354.931 96.8053V65.9748L381.711 50.5596L408.378 65.9748V96.8053L381.711 112.333L354.931 96.8053Z" fill="#070707"/>
<path id="Vector_36" d="M-7.38342 48.9846V18.1541L19.3963 2.73889L46.0635 18.1541V48.9846L19.3963 64.5123L-7.38342 48.9846Z" fill="#070707"/>
<path id="Vector_37" d="M104.124 48.9846V18.1541L130.791 2.73889L157.571 18.1541V48.9846L130.791 64.5123L104.124 48.9846Z" fill="#070707"/>
<path id="Vector_38" d="M215.631 48.9846V18.1541L242.299 2.73889L269.078 18.1541V48.9846L242.299 64.5123L215.631 48.9846Z" fill="#070707"/>
<path id="Vector_39" d="M327.026 48.9846V18.1541L353.806 2.73889L380.586 18.1541V48.9846L353.806 64.5123L327.026 48.9846Z" fill="#070707"/>
<path id="Vector_40" d="M48.3143 48.5345V17.5915L75.0941 2.17627L101.874 17.5915V48.5345L75.0941 63.9497L48.3143 48.5345Z" fill="#070707"/>
<path id="Vector_41" d="M159.821 48.5345V17.5915L186.601 2.17627L213.381 17.5915V48.5345L186.601 63.9497L159.821 48.5345Z" fill="#070707"/>
<path id="Vector_42" d="M159.821 145.302V114.359L186.601 98.9434L213.381 114.359V145.302L186.601 160.717L159.821 145.302Z" fill="#070707"/>
<path id="Vector_43" d="M271.329 48.5345V17.5915L298.109 2.17627L324.776 17.5915V48.5345L298.109 63.9497L271.329 48.5345Z" fill="#070707"/>
</g>
<g id="Group 56768">
<path id="Vector_44" d="M-7.38342 531.59V500.76L19.3963 485.345L46.0635 500.76V531.59L19.3963 547.118L-7.38342 531.59Z" fill="#0F0F0F"/>
<path id="Vector_45" d="M104.124 531.59V500.76L130.791 485.345L157.571 500.76V531.59L130.791 547.118L104.124 531.59Z" fill="#0F0F0F"/>
<path id="Vector_46" d="M215.631 531.59V500.76L242.299 485.345L269.078 500.76V531.59L242.299 547.118L215.631 531.59Z" fill="#0F0F0F"/>
<path id="Vector_47" d="M327.026 531.59V500.76L353.806 485.345L380.586 500.76V531.59L353.806 547.118L327.026 531.59Z" fill="#0F0F0F"/>
<path id="Vector_48" d="M-7.38342 338.169V307.226L19.3963 291.81L46.0635 307.226V338.169L19.3963 353.584L-7.38342 338.169Z" fill="#0F0F0F"/>
<path id="Vector_49" d="M48.3143 338.169V307.226L75.0941 291.81L101.874 307.226V338.169L75.0941 353.584L48.3143 338.169Z" fill="#0F0F0F"/>
<path id="Vector_50" d="M104.124 338.169V307.226L130.791 291.81L157.571 307.226V338.169L130.791 353.584L104.124 338.169Z" fill="#070707"/>
<path id="Vector_51" d="M159.821 338.169V307.226L186.601 291.81L213.381 307.226V338.169L186.601 353.584L159.821 338.169Z" fill="#0F0F0F"/>
<path id="Vector_52" d="M215.631 338.169V307.226L242.299 291.81L269.078 307.226V338.169L242.299 353.584L215.631 338.169Z" fill="#0F0F0F"/>
<path id="Vector_53" d="M271.329 338.169V307.226L298.109 291.81L324.776 307.226V338.169L298.109 353.584L271.329 338.169Z" fill="#0F0F0F"/>
<path id="Vector_54" d="M327.026 338.169V307.226L353.806 291.81L380.586 307.226V338.169L353.806 353.584L327.026 338.169Z" fill="#0F0F0F"/>
<path id="Vector_55" d="M-35.2881 386.44V355.497L-8.50834 340.081L18.2714 355.497V386.44L-8.50834 401.855L-35.2881 386.44Z" fill="#0F0F0F"/>
<path id="Vector_56" d="M20.5216 386.44V355.497L47.1888 340.081L73.9686 355.497V386.44L47.1888 401.855L20.5216 386.44Z" fill="#0F0F0F"/>
<path id="Vector_57" d="M76.2192 386.44V355.497L102.999 340.081L129.666 355.497V386.44L102.999 401.855L76.2192 386.44Z" fill="#0F0F0F"/>
<path id="Vector_58" d="M131.917 386.44V355.497L158.697 340.081L185.476 355.497V386.44L158.697 401.855L131.917 386.44Z" fill="#0F0F0F"/>
<path id="Vector_59" d="M187.727 386.44V355.497L214.506 340.081L241.174 355.497V386.44L214.506 401.855L187.727 386.44Z" fill="#0F0F0F"/>
<path id="Vector_60" d="M243.424 386.44V355.497L270.204 340.081L296.983 355.497V386.44L270.204 401.855L243.424 386.44Z" fill="#070707"/>
<path id="Vector_61" d="M299.234 386.44V355.497L325.901 340.081L352.681 355.497V386.44L325.901 401.855L299.234 386.44Z" fill="#0F0F0F"/>
<path id="Vector_62" d="M354.931 386.44V355.497L381.711 340.081L408.378 355.497V386.44L381.711 401.855L354.931 386.44Z" fill="#0F0F0F"/>
<path id="Vector_63" d="M-7.38342 434.598V403.768L19.3963 388.353L46.0635 403.768V434.598L19.3963 450.126L-7.38342 434.598Z" fill="#0F0F0F"/>
<path id="Vector_64" d="M48.3143 434.598V403.768L75.0941 388.353L101.874 403.768V434.598L75.0941 450.126L48.3143 434.598Z" fill="#0F0F0F"/>
<path id="Vector_65" d="M104.124 434.599V403.768L130.791 388.353L157.571 403.768V434.599L130.791 450.126L104.124 434.599Z" fill="#0F0F0F"/>
<path id="Vector_66" d="M159.821 434.598V403.768L186.601 388.353L213.381 403.768V434.598L186.601 450.126L159.821 434.598Z" fill="#070707"/>
<path id="Vector_67" d="M215.631 434.599V403.768L242.299 388.353L269.078 403.768V434.599L242.299 450.126L215.631 434.599Z" fill="#0F0F0F"/>
<path id="Vector_68" d="M271.329 434.598V403.768L298.109 388.353L324.776 403.768V434.598L298.109 450.126L271.329 434.598Z" fill="#0F0F0F"/>
<path id="Vector_69" d="M327.026 434.598V403.768L353.806 388.353L380.586 403.768V434.598L353.806 450.126L327.026 434.598Z" fill="#0F0F0F"/>
<path id="Vector_70" d="M-35.2881 482.869V452.039L-8.50834 436.623L18.2714 452.039V482.869L-8.50834 498.397L-35.2881 482.869Z" fill="#0F0F0F"/>
<path id="Vector_71" d="M20.5216 482.869V452.039L47.1888 436.624L73.9686 452.039V482.869L47.1888 498.397L20.5216 482.869Z" fill="#0F0F0F"/>
<path id="Vector_72" d="M131.917 482.869V452.039L158.697 436.623L185.476 452.039V482.869L158.697 498.397L131.917 482.869Z" fill="#0F0F0F"/>
<path id="Vector_73" d="M187.727 482.869V452.039L214.506 436.623L241.174 452.039V482.869L214.506 498.397L187.727 482.869Z" fill="#0F0F0F"/>
<path id="Vector_74" d="M243.424 482.869V452.039L270.204 436.623L296.983 452.039V482.869L270.204 498.397L243.424 482.869Z" fill="#0F0F0F"/>
<path id="Vector_75" d="M299.234 482.869V452.039L325.901 436.624L352.681 452.039V482.869L325.901 498.397L299.234 482.869Z" fill="#0F0F0F"/>
<path id="Vector_76" d="M354.931 482.869V452.039L381.711 436.623L408.378 452.039V482.869L381.711 498.397L354.931 482.869Z" fill="#0F0F0F"/>
</g>
<g id="Group 56769">
<path id="Vector_77" d="M-35.2881 675.953V645.01L-8.50834 629.595L18.2714 645.01V675.953L-8.50834 691.369L-35.2881 675.953Z" fill="#0F0F0F"/>
<path id="Vector_78" d="M76.2192 675.953V645.01L102.999 629.595L129.666 645.01V675.953L102.999 691.369L76.2192 675.953Z" fill="#0F0F0F"/>
<path id="Vector_79" d="M187.727 675.953V645.01L214.506 629.595L241.174 645.01V675.953L214.506 691.369L187.727 675.953Z" fill="#0F0F0F"/>
<path id="Vector_80" d="M299.234 675.953V645.01L325.901 629.595L352.681 645.01V675.953L325.901 691.369L299.234 675.953Z" fill="#0F0F0F"/>
</g>
<g id="Group 56773">
<path id="Vector_81" d="M-35.2881 97.1429V66.2L-8.50834 50.7847L18.2714 66.2V97.1429L-8.50834 112.558L-35.2881 97.1429Z" fill="#0F0F0F"/>
<path id="Vector_82" d="M76.2192 97.1429V66.2L102.999 50.7847L129.666 66.2V97.1429L102.999 112.558L76.2192 97.1429Z" fill="#0F0F0F"/>
<path id="Vector_83" d="M187.727 97.1429V66.2L214.506 50.7847L241.174 66.2V97.1429L214.506 112.558L187.727 97.1429Z" fill="#0F0F0F"/>
<path id="Vector_84" d="M299.234 97.1429V66.2L325.901 50.7847L352.681 66.2V97.1429L325.901 112.558L299.234 97.1429Z" fill="#0F0F0F"/>
<path id="Vector_85" d="M131.917 193.899V163.068L158.697 147.653L185.476 163.068V193.899L158.697 209.426L131.917 193.899Z" fill="#0F0F0F"/>
<path id="Vector_86" d="M-7.38342 145.302V114.471L19.3963 98.9434L46.0635 114.471V145.302L19.3963 160.717L-7.38342 145.302Z" fill="#0F0F0F"/>
<path id="Vector_87" d="M48.3143 145.302V114.471L75.0941 98.9434L101.874 114.471V145.302L75.0941 160.717L48.3143 145.302Z" fill="#0F0F0F"/>
<path id="Vector_88" d="M104.124 145.301V114.471L130.791 98.9431L157.571 114.471V145.301L130.791 160.716L104.124 145.301Z" fill="#0F0F0F"/>
<path id="Vector_89" d="M215.631 145.301V114.471L242.299 98.9431L269.078 114.471V145.301L242.299 160.716L215.631 145.301Z" fill="#0F0F0F"/>
<path id="Vector_90" d="M271.329 145.302V114.471L298.109 98.9434L324.776 114.471V145.302L298.109 160.717L271.329 145.302Z" fill="#0F0F0F"/>
<path id="Vector_91" d="M327.026 145.302V114.471L353.806 98.9434L380.586 114.471V145.302L353.806 160.717L327.026 145.302Z" fill="#0F0F0F"/>
<path id="Vector_92" d="M-35.2881 193.572V162.742L-8.50834 147.214L18.2714 162.742V193.572L-8.50834 208.988L-35.2881 193.572Z" fill="#0F0F0F"/>
<path id="Vector_93" d="M20.5216 193.572V162.742L47.1888 147.214L73.9686 162.742V193.572L47.1888 208.988L20.5216 193.572Z" fill="#0F0F0F"/>
<path id="Vector_94" d="M76.2192 193.572V162.742L102.999 147.214L129.666 162.742V193.572L102.999 208.988L76.2192 193.572Z" fill="#0F0F0F"/>
<path id="Vector_95" d="M187.727 193.572V162.742L214.506 147.214L241.174 162.742V193.572L214.506 208.988L187.727 193.572Z" fill="#0F0F0F"/>
<path id="Vector_96" d="M243.424 193.572V162.742L270.204 147.214L296.983 162.742V193.572L270.204 208.988L243.424 193.572Z" fill="#0F0F0F"/>
<path id="Vector_97" d="M299.234 193.572V162.742L325.901 147.214L352.681 162.742V193.572L325.901 208.988L299.234 193.572Z" fill="#0F0F0F"/>
<path id="Vector_98" d="M354.931 193.572V162.742L381.711 147.214L408.378 162.742V193.572L381.711 208.988L354.931 193.572Z" fill="#0F0F0F"/>
<path id="Vector_99" d="M-7.38342 241.844V210.901L19.3963 195.486L46.0635 210.901V241.844L19.3963 257.259L-7.38342 241.844Z" fill="#0F0F0F"/>
<path id="Vector_100" d="M48.3143 241.844V210.901L75.0941 195.486L101.874 210.901V241.844L75.0941 257.259L48.3143 241.844Z" fill="#0F0F0F"/>
<path id="Vector_101" d="M104.124 241.844V210.901L130.791 195.486L157.571 210.901V241.844L130.791 257.259L104.124 241.844Z" fill="#070707"/>
<path id="Vector_102" d="M159.821 241.844V210.901L186.601 195.486L213.381 210.901V241.844L186.601 257.259L159.821 241.844Z" fill="#0F0F0F"/>
<path id="Vector_103" d="M215.631 241.844V210.901L242.299 195.486L269.078 210.901V241.844L242.299 257.259L215.631 241.844Z" fill="#0F0F0F"/>
<path id="Vector_104" d="M271.329 241.844V210.901L298.109 195.486L324.776 210.901V241.844L298.109 257.259L271.329 241.844Z" fill="#0F0F0F"/>
<path id="Vector_105" d="M327.026 241.844V210.901L353.806 195.486L380.586 210.901V241.844L353.806 257.259L327.026 241.844Z" fill="#0F0F0F"/>
<path id="Vector_106" d="M-35.2881 290.115V259.172L-8.50834 243.756L18.2714 259.172V290.115L-8.50834 305.53L-35.2881 290.115Z" fill="#0F0F0F"/>
<path id="Vector_107" d="M20.5216 290.115V259.172L47.1888 243.756L73.9686 259.172V290.115L47.1888 305.53L20.5216 290.115Z" fill="#0F0F0F"/>
<path id="Vector_108" d="M76.2192 290.115V259.172L102.999 243.756L129.666 259.172V290.115L102.999 305.53L76.2192 290.115Z" fill="#0F0F0F"/>
<path id="Vector_109" d="M131.917 290.115V259.172L158.697 243.756L185.476 259.172V290.115L158.697 305.53L131.917 290.115Z" fill="#0F0F0F"/>
<path id="Vector_110" d="M187.727 290.115V259.172L214.506 243.756L241.174 259.172V290.115L214.506 305.53L187.727 290.115Z" fill="#0F0F0F"/>
<path id="Vector_111" d="M243.424 290.115V259.172L270.204 243.756L296.983 259.172V290.115L270.204 305.53L243.424 290.115Z" fill="#0F0F0F"/>
<path id="Vector_112" d="M299.234 290.115V259.172L325.901 243.756L352.681 259.172V290.115L325.901 305.53L299.234 290.115Z" fill="#0F0F0F"/>
<path id="Vector_113" d="M354.931 290.115V259.172L381.711 243.756L408.378 259.172V290.115L381.711 305.53L354.931 290.115Z" fill="#0F0F0F"/>
</g>
</g>
</g>
<g id="Group">
<path id="Vector_114" fill-rule="evenodd" clip-rule="evenodd" d="M328.687 102.713C329.273 104.049 329.121 105.145 328.73 106.1C327.558 108.933 324.725 109.465 322.923 109.161C321.36 108.9 319.602 108.77 319.656 108.672C319.971 108.108 320.937 105.438 321.762 104.125C324.106 100.401 328.318 101.878 328.687 102.713Z" fill="#43864A"/>
<path id="Vector_115" fill-rule="evenodd" clip-rule="evenodd" d="M335.775 91.0234C334.255 98.578 325.387 106.567 322.847 106.632C323.965 105.666 327.742 103.137 330.717 99.1533C333.832 94.9852 334.874 90.1767 335.427 90.1876C336.6 90.1876 335.341 89.9054 335.775 91.0234Z" fill="#6B3917"/>
<path id="Vector_116" fill-rule="evenodd" clip-rule="evenodd" d="M331.281 82.774C325.246 85.683 323.683 83.523 322.771 81.287C322.174 79.8108 321.349 78.2478 321.468 78.2369C322.109 78.2043 324.898 77.6182 326.451 77.6291C330.836 77.6725 332.106 82.3833 331.281 82.774Z" fill="#43864A"/>
<path id="Vector_117" fill-rule="evenodd" clip-rule="evenodd" d="M344.957 82.6329C337.739 85.3248 326.277 82.0034 324.877 79.8868C326.299 80.321 330.434 82.1988 335.373 82.6329C340.561 83.078 345.196 81.4281 345.489 81.9057C346.097 82.8934 345.674 81.6778 344.957 82.6329Z" fill="#6B3917"/>
<path id="Vector_118" fill-rule="evenodd" clip-rule="evenodd" d="M291.261 106.534C288.688 108.455 284.173 109.324 280.96 108.423C281.242 109.291 278.366 111.951 276.597 109.118C276.206 108.499 275.858 107.359 276.586 106.588C277.617 105.492 280.016 105.091 280.797 107.728C280.884 108.065 286.474 108.542 289.296 106.578C292.281 104.483 290.273 105.991 291.261 106.534Z" fill="#FBBD6A"/>
<path id="Vector_119" fill-rule="evenodd" clip-rule="evenodd" d="M287.972 102.073C285.009 103.278 280.407 102.974 277.541 101.302C277.584 102.214 274.133 104.049 273.134 100.868C272.917 100.184 272.863 98.9904 273.764 98.426C275.045 97.6228 277.465 97.8507 277.552 100.608C277.563 100.944 282.838 102.833 286.073 101.639C289.481 100.347 287.158 101.302 287.972 102.073Z" fill="#FBBD6A"/>
<path id="Vector_120" fill-rule="evenodd" clip-rule="evenodd" d="M292.911 96.8195C289.948 98.0135 285.356 97.7096 282.48 96.038C282.523 96.9498 279.072 98.795 278.073 95.6147C277.856 94.92 277.802 93.7261 278.702 93.1616C279.983 92.3584 282.404 92.5863 282.491 95.3433C282.501 95.6907 287.788 97.5793 291.011 96.3745C294.42 95.0937 292.097 96.038 292.911 96.8195Z" fill="#FBBD6A"/>
<path id="Vector_121" fill-rule="evenodd" clip-rule="evenodd" d="M301.41 103.842C302.159 109.628 291.619 118.213 286.062 116.857C282.067 115.891 282.61 105.926 292.335 105.753C296.058 105.688 299.706 103.864 301.41 103.842Z" fill="#F8BBA6"/>
<path id="Vector_122" fill-rule="evenodd" clip-rule="evenodd" d="M300.585 99.4354C299.141 105.091 286.203 109.215 281.525 105.915C278.171 103.549 282.328 94.4858 291.435 97.8941C294.93 99.1966 298.989 98.8385 300.585 99.4354Z" fill="#F7A37F"/>
<path id="Vector_123" fill-rule="evenodd" clip-rule="evenodd" d="M300.552 96.418C296.08 100.184 283.164 95.9838 281.286 90.5783C279.94 86.6816 288.602 81.7429 294.018 89.8185C296.091 92.9337 299.597 94.9961 300.552 96.418Z" fill="#F8BBA6"/>
<path id="Vector_124" fill-rule="evenodd" clip-rule="evenodd" d="M310.234 99.4572C308.118 103.039 304.59 104.83 301.323 107.066C298.664 108.9 297.415 93.8129 298.522 93.6827C302.387 93.281 304.297 92.9554 310.137 97.5034C318.853 98.5454 330.38 92.7058 345.207 80.4838C362.172 66.5034 370.736 45.0443 371.051 37.9999C372.093 39.3024 374.199 38.1518 373.928 39.4869C371.518 51.2205 367.589 60.1644 356.463 73.2982C339.91 92.836 318.918 100.803 310.234 99.4572Z" fill="#6B3917"/>
<path id="Vector_125" fill-rule="evenodd" clip-rule="evenodd" d="M364.56 76.9887C366.036 78.3238 366.46 79.7565 366.525 81.1568C366.699 85.314 363.475 87.5825 361.087 88.2121C359.003 88.7765 356.745 89.6014 356.756 89.4603C356.821 88.5811 356.517 84.7278 356.789 82.633C357.592 76.7173 363.638 76.1529 364.56 76.9887Z" fill="#43864A"/>
<path id="Vector_126" fill-rule="evenodd" clip-rule="evenodd" d="M366.709 58.5254C369.108 68.7176 362.639 83.6315 359.556 85.1402C360.392 83.3059 363.638 78.0415 365.06 71.4421C366.557 64.5279 365.136 57.9827 365.819 57.6788C367.274 57.0166 365.548 57.3857 366.709 58.5254Z" fill="#6B3917"/>
<path id="Vector_127" fill-rule="evenodd" clip-rule="evenodd" d="M365.201 44.9467C361.076 50.2219 358.721 48.9736 356.908 47.3672C355.725 46.3143 354.292 45.2615 354.39 45.2181C354.954 44.9141 357.19 43.1449 358.59 42.4719C362.552 40.5615 365.776 44.2195 365.201 44.9467Z" fill="#43864A"/>
<path id="Vector_128" fill-rule="evenodd" clip-rule="evenodd" d="M371.279 46.1732C364.636 42.2765 358.091 44.0132 357.592 44.8707C359.068 44.6753 358.536 44.3714 363.475 44.8056C368.652 45.2506 370.465 47.2478 370.845 46.8245C371.605 45.9561 371.822 47.2478 371.279 46.1732Z" fill="#6B3917"/>
<path id="Vector_129" fill-rule="evenodd" clip-rule="evenodd" d="M356.951 55.4971C357.027 57.4834 356.289 58.7968 355.323 59.8062C352.436 62.8238 348.572 62.0857 346.466 60.8157C344.599 59.7086 342.439 58.6666 342.558 58.5689C343.231 58.0153 345.782 55.1063 347.475 53.8581C352.295 50.3087 356.908 54.2488 356.951 55.4971Z" fill="#43864A"/>
<path id="Vector_130" fill-rule="evenodd" clip-rule="evenodd" d="M371.702 44.1977C366.047 53.0114 350.84 58.7317 347.606 57.5702C349.505 56.8973 355.551 55.5622 361.282 51.9911C367.295 48.2464 370.997 42.689 371.702 42.9603C373.179 43.5465 371.713 42.5587 371.702 44.1977Z" fill="#6B3917"/>
</g>
<g id="Group_2">
<path id="Vector_131" fill-rule="evenodd" clip-rule="evenodd" d="M61.9609 584.38C63.5502 585.445 64.9977 585.487 66.3032 585.203C70.2197 584.338 71.5536 580.804 71.5678 578.435C71.5819 576.363 71.8232 574.064 71.6813 574.121C70.8724 574.39 67.2255 575.029 65.3382 575.795C60.0168 577.952 60.9534 583.713 61.9609 584.38Z" fill="#43864A"/>
<path id="Vector_132" fill-rule="evenodd" clip-rule="evenodd" d="M45.2871 590.837C55.348 590.596 67.6652 580.989 68.318 577.753C66.8138 578.974 62.6986 583.259 56.909 586.182C50.8355 589.247 44.4073 589.489 44.2938 590.212C44.0241 591.702 43.9532 590.014 45.2871 590.837Z" fill="#6B3917"/>
<path id="Vector_133" fill-rule="evenodd" clip-rule="evenodd" d="M35.6946 583.174C40.8031 576.065 38.3907 573.567 35.7229 571.879C33.9633 570.772 32.1328 569.353 32.1044 569.509C31.9199 570.332 30.5293 573.78 30.1887 575.781C29.2238 581.443 34.9992 584.153 35.6946 583.174Z" fill="#43864A"/>
<path id="Vector_134" fill-rule="evenodd" clip-rule="evenodd" d="M32.3882 600.742C37.4967 592.071 35.8223 576.547 33.4241 574.262C33.6653 576.192 35.1411 581.939 34.5593 588.41C33.9491 595.193 30.7847 600.784 31.3239 601.267C32.4733 602.274 30.9975 601.451 32.3882 600.742Z" fill="#6B3917"/>
<path id="Vector_135" fill-rule="evenodd" clip-rule="evenodd" d="M75.3849 537.055C78.4358 534.189 80.5785 528.555 80.167 524.227C81.2171 524.795 85.3039 521.687 82.0543 518.764C81.3448 518.126 79.9683 517.416 78.8047 518.168C77.1586 519.247 76.0944 522.241 79.3156 523.858C79.7271 524.057 79.0743 531.351 75.8957 534.53C72.5184 537.907 74.9024 535.665 75.3849 537.055Z" fill="#FBBD6A"/>
<path id="Vector_136" fill-rule="evenodd" clip-rule="evenodd" d="M70.3899 531.805C72.6178 528.257 73.2706 522.269 71.7664 518.196C72.93 518.466 76.0802 514.436 72.2063 512.421C71.369 511.995 69.8507 511.641 68.9141 512.676C67.5802 514.138 67.3248 517.317 70.8582 518.04C71.2839 518.14 72.5185 525.348 70.2338 529.251C67.8215 533.366 69.5811 530.599 70.3899 531.805Z" fill="#FBBD6A"/>
<path id="Vector_137" fill-rule="evenodd" clip-rule="evenodd" d="M62.5001 536.97C64.7138 533.423 65.3666 527.449 63.8624 523.362C65.026 523.631 68.1905 519.601 64.3165 517.586C63.4651 517.161 61.9467 516.806 61.0101 517.842C59.6904 519.303 59.4208 522.482 62.9542 523.206C63.3941 523.305 64.6287 530.528 62.344 534.402C59.9317 538.517 61.6771 535.75 62.5001 536.97Z" fill="#FBBD6A"/>
<path id="Vector_138" fill-rule="evenodd" clip-rule="evenodd" d="M69.6095 549.514C76.8891 551.785 90.3415 540.191 89.8591 532.713C89.5185 527.349 76.5769 525.774 74.1362 538.262C73.1996 543.044 70.021 547.329 69.6095 549.514Z" fill="#DCECE2"/>
<path id="Vector_139" fill-rule="evenodd" clip-rule="evenodd" d="M64.1319 547.443C71.7521 546.875 79.9967 531.152 76.8039 524.369C74.5192 519.516 61.904 522.794 64.217 535.31C65.0968 540.121 63.7204 545.257 64.1319 547.443Z" fill="#C3CFC8"/>
<path id="Vector_140" fill-rule="evenodd" clip-rule="evenodd" d="M60.2438 546.719C66.1045 541.824 63.6495 524.242 57.122 520.581C52.425 517.955 44.081 527.988 53.248 536.8C56.7672 540.192 58.6403 545.158 60.2438 546.719Z" fill="#DCECE2"/>
<path id="Vector_141" fill-rule="evenodd" clip-rule="evenodd" d="M61.9467 559.873C67.041 557.958 70.1487 553.828 73.7672 550.125C76.733 547.116 57.5902 542.079 57.1787 543.469C55.7739 548.351 54.9225 550.735 59.4492 559.292C58.7964 570.743 48.6645 584.252 29.5643 600.571C7.697 619.232 -21.8614 625.376 -31 624.184C-29.5526 625.83 -31.5251 628.271 -29.7371 628.214C-14.0852 627.788 -1.68279 624.752 17.7722 613.428C46.6779 596.57 61.7054 571.353 61.9467 559.873Z" fill="#6B3917"/>
<path id="Vector_142" fill-rule="evenodd" clip-rule="evenodd" d="M20.6668 624.709C22.0433 626.909 23.8029 627.789 25.5908 628.186C30.9122 629.349 34.5591 625.717 35.9214 622.794C37.1134 620.239 38.7027 617.529 38.5182 617.501C37.3688 617.387 32.4874 616.11 29.7202 615.996C21.9014 615.67 19.8012 623.319 20.6668 624.709Z" fill="#43864A"/>
<path id="Vector_143" fill-rule="evenodd" clip-rule="evenodd" d="M-3.59844 623.262C8.9742 628.668 29.6495 623.73 32.2889 620.112C29.7347 620.764 22.2138 623.744 13.4016 624.085C4.16368 624.44 -3.93901 621.119 -4.49244 621.928C-5.67023 623.659 -4.79043 621.502 -3.59844 623.262Z" fill="#6B3917"/>
<path id="Vector_144" fill-rule="evenodd" clip-rule="evenodd" d="M-5.25864 610.008C-2.71857 610.561 -0.859643 609.909 0.658723 608.901C5.19963 605.879 5.12868 600.728 3.96508 597.719C2.95756 595.066 2.12032 592.043 1.96423 592.185C1.09862 592.937 -3.22943 595.548 -5.23027 597.45C-10.8922 602.842 -6.86215 609.667 -5.25864 610.008Z" fill="#43864A"/>
<path id="Vector_145" fill-rule="evenodd" clip-rule="evenodd" d="M-23.1667 626.44C-10.5373 621.161 0.289943 602.884 -0.476335 598.457C-1.78185 600.742 -4.86115 608.234 -10.7643 614.79C-16.9513 621.687 -24.9546 625.177 -24.756 626.142C-24.3445 628.186 -25.281 626.071 -23.1667 626.44Z" fill="#6B3917"/>
</g>
<g id="Group_3">
<path id="Vector 3" d="M336.029 534.223C346.661 537.654 370.25 552.989 379.555 586.878" stroke="#6B3917" stroke-width="1.42678"/>
<g id="Group 56780">
<g id="Group_4">
<path id="Vector_146" d="M320.343 534.795C316.55 533.609 312.095 528.361 315.839 524.18C318.297 521.457 321.872 522.83 324.458 524.119C328.163 525.929 331.325 529.038 333.11 532.909C333.573 533.919 328.905 534.953 328.266 535.069C325.667 535.597 322.865 535.571 320.343 534.795Z" fill="#F6C01E"/>
<path id="Vector_147" d="M321.994 534.582C318.222 533.388 313.651 528.334 317.268 524.499C319.626 522.013 323.202 523.386 325.788 524.675C329.493 526.485 332.704 529.476 334.584 533.161C335.072 534.112 330.478 534.969 329.86 535.075C327.26 535.481 324.474 535.376 321.994 534.582Z" fill="#FDDA46"/>
</g>
<g id="Group_5">
<path id="Vector_148" d="M350.649 533.644C354.442 534.83 358.897 540.077 355.153 544.259C352.695 546.981 349.12 545.608 346.534 544.319C342.829 542.51 339.667 539.4 337.882 535.529C337.419 534.52 342.087 533.485 342.726 533.37C345.346 532.833 348.148 532.859 350.649 533.644Z" fill="#F6C01E"/>
<path id="Vector_149" d="M349.019 533.848C352.79 535.042 357.362 540.095 353.745 543.931C351.386 546.417 347.811 545.044 345.225 543.755C341.519 541.945 338.308 538.954 336.429 535.269C335.94 534.318 340.535 533.461 341.152 533.355C343.731 532.957 346.517 533.062 349.019 533.848Z" fill="#FDDA46"/>
</g>
<g id="Group_6">
<path id="Vector_150" d="M334.043 520.21C335.229 516.417 340.477 511.962 344.658 515.706C347.381 518.164 346.008 521.739 344.719 524.325C342.909 528.03 339.8 531.192 335.929 532.976C334.919 533.44 333.884 528.771 333.769 528.133C333.262 525.525 333.258 522.711 334.043 520.21Z" fill="#F6C01E"/>
<path id="Vector_151" d="M334.268 521.831C335.463 518.06 340.516 513.488 344.351 517.105C346.837 519.464 345.464 523.039 344.175 525.625C342.366 529.331 339.374 532.542 335.689 534.421C334.739 534.91 333.881 530.315 333.775 529.698C333.377 527.119 333.462 524.341 334.268 521.831Z" fill="#FDDA46"/>
</g>
<g id="Group_7">
<path id="Vector_152" d="M336.825 548.108C335.639 551.9 330.392 556.356 326.21 552.612C323.488 550.154 324.861 546.579 326.15 543.993C327.959 540.288 331.069 537.126 334.94 535.341C335.95 534.878 336.984 539.546 337.099 540.185C337.627 542.784 337.611 545.606 336.825 548.108Z" fill="#F6C01E"/>
<path id="Vector_153" d="M336.622 546.478C335.427 550.249 330.374 554.821 326.539 551.204C324.052 548.845 325.425 545.27 326.715 542.684C328.524 538.978 331.516 535.767 335.2 533.887C336.151 533.399 337.008 537.994 337.115 538.611C337.512 541.19 337.428 543.967 336.622 546.478Z" fill="#FDDA46"/>
</g>
<g id="Group_8">
<path id="Vector_154" d="M336.316 528.312C339.789 528.601 342.378 531.627 342.098 535.121C341.809 538.594 338.782 541.183 335.288 540.903C331.815 540.615 329.227 537.588 329.507 534.094C329.804 530.642 332.851 528.045 336.316 528.312Z" fill="#6B3917"/>
<path id="Vector_155" d="M338.01 539.958C340.961 538.746 342.372 535.372 341.161 532.421C339.949 529.469 336.575 528.059 333.624 529.27C330.672 530.481 329.262 533.856 330.473 536.807C331.685 539.758 335.059 541.169 338.01 539.958Z" fill="#925627"/>
<path id="Vector_156" d="M337.411 530.801C339.509 531.678 340.498 534.088 339.621 536.187C338.744 538.285 336.334 539.274 334.236 538.397C332.137 537.52 331.148 535.11 332.025 533.011C332.902 530.913 335.312 529.924 337.411 530.801Z" fill="#6B3917"/>
</g>
</g>
</g>
<g id="Group_9">
<path id="Vector 3_2" d="M318.944 576.592C313.274 581.384 302.64 596.765 305.47 619.949" stroke="#6B3917"/>
<g id="Group 56780_2">
<g id="Group_10">
<path id="Vector_157" d="M328.733 572.985C330.765 571.299 332.18 566.948 328.823 565.322C326.625 564.268 324.773 566.015 323.509 567.46C321.687 569.507 320.528 572.217 320.408 575.047C320.378 575.785 323.509 575.243 323.93 575.153C325.662 574.822 327.378 574.099 328.733 572.985Z" fill="#D1CDC0"/>
<path id="Vector_158" d="M327.664 573.271C329.681 571.585 331.217 567.324 328.025 565.879C325.948 564.946 324.096 566.692 322.832 568.137C321.01 570.185 319.791 572.834 319.565 575.574C319.505 576.282 322.546 575.65 322.952 575.559C324.653 575.153 326.339 574.385 327.664 573.271Z" fill="#DCECE2"/>
</g>
<g id="Group_11">
<path id="Vector_159" d="M309.809 579.925C307.777 581.611 306.362 585.962 309.719 587.588C311.917 588.642 313.769 586.895 315.033 585.45C316.855 583.403 318.014 580.693 318.135 577.863C318.165 577.125 315.033 577.667 314.612 577.757C312.865 578.088 311.149 578.811 309.809 579.925Z" fill="#D1CDC0"/>
<path id="Vector_160" d="M310.863 579.639C308.846 581.325 307.31 585.586 310.502 587.031C312.579 587.964 314.431 586.218 315.696 584.773C317.517 582.725 318.737 580.076 318.962 577.336C319.023 576.628 315.982 577.26 315.575 577.351C313.889 577.757 312.203 578.525 310.863 579.639Z" fill="#DCECE2"/>
</g>
<g id="Group_12">
<path id="Vector_161" d="M316.629 567.475C314.943 565.443 310.592 564.028 308.966 567.385C307.913 569.583 309.659 571.434 311.104 572.699C313.152 574.521 315.861 575.68 318.692 575.8C319.429 575.83 318.887 572.699 318.797 572.277C318.451 570.546 317.743 568.815 316.629 567.475Z" fill="#D1CDC0"/>
<path id="Vector_162" d="M316.9 568.529C315.214 566.512 310.954 564.976 309.508 568.168C308.575 570.245 310.321 572.097 311.767 573.361C313.814 575.183 316.464 576.402 319.203 576.628C319.911 576.688 319.279 573.647 319.188 573.241C318.782 571.555 318.029 569.869 316.9 568.529Z" fill="#DCECE2"/>
</g>
<g id="Group_13">
<path id="Vector_163" d="M321.958 585.33C323.644 587.362 327.995 588.777 329.621 585.42C330.675 583.222 328.929 581.37 327.483 580.106C325.436 578.284 322.726 577.125 319.896 577.005C319.158 576.974 319.7 580.106 319.791 580.527C320.122 582.259 320.844 583.99 321.958 585.33Z" fill="#D1CDC0"/>
<path id="Vector_164" d="M321.672 584.276C323.358 586.293 327.619 587.829 329.064 584.637C329.997 582.56 328.251 580.708 326.806 579.443C324.758 577.622 322.109 576.402 319.369 576.177C318.661 576.116 319.294 579.157 319.384 579.564C319.79 581.25 320.543 582.936 321.672 584.276Z" fill="#DCECE2"/>
</g>
<g id="Group_14">
<path id="Vector_165" d="M317.277 573.03C315.214 574.084 314.386 576.598 315.44 578.676C316.494 580.738 319.008 581.566 321.085 580.512C323.148 579.458 323.976 576.944 322.922 574.867C321.868 572.819 319.339 571.991 317.277 573.03Z" fill="#6B3917"/>
<path id="Vector_166" d="M319.173 580.618C317.053 580.618 315.334 578.899 315.334 576.779C315.334 574.659 317.053 572.94 319.173 572.94C321.293 572.94 323.012 574.659 323.012 576.779C323.012 578.899 321.293 580.618 319.173 580.618Z" fill="#925627"/>
<path id="Vector_167" d="M317.231 574.837C316.162 575.905 316.162 577.637 317.231 578.706C318.3 579.774 320.031 579.774 321.1 578.706C322.169 577.637 322.169 575.905 321.1 574.837C320.031 573.768 318.3 573.768 317.231 574.837Z" fill="#6B3917"/>
</g>
</g>
</g>
<g id="Group_15">
<path id="Vector_168" fill-rule="evenodd" clip-rule="evenodd" d="M-31.2409 78.0549C-30.7229 76.5458 -9.12165 100.873 9.84419 105.986C31.986 112 53.8351 94.8584 64.9848 74.8114C76.7878 53.4579 77.3058 29.1762 77.5761 38.952C78.1843 62.8282 64.8496 89.4975 41.942 104.814C17.9982 120.852 -14.3023 103.666 -31.2409 78.0549Z" fill="#6B3917"/>
<path id="Vector_169" fill-rule="evenodd" clip-rule="evenodd" d="M28.4046 108.418C31.6481 117.406 24.2375 127.136 15.7231 128.082C14.0338 128.285 8.49268 126.1 3.62733 126.934C-1.73356 127.857 -6.39621 131.709 -6.53136 130.65C-7.36477 124.456 -0.359585 113.103 7.14116 108.734C16.6241 103.193 27.3459 105.468 28.4046 108.418Z" fill="#43864A"/>
<path id="Vector_170" fill-rule="evenodd" clip-rule="evenodd" d="M68.859 77.6268C77.6887 79.8117 81.7657 91.9075 78.3419 100.061C77.7113 101.683 73.1387 105.422 71.4493 110.198C69.5122 115.559 69.9627 122.406 69.3545 121.437C60.7276 107.405 55.1414 105.31 55.3667 96.0971C55.5469 84.4744 65.9083 76.9286 68.859 77.6268Z" fill="#43864A"/>
<path id="Vector_171" fill-rule="evenodd" clip-rule="evenodd" d="M71.0889 63.4814C71.224 54.021 60.9527 46.9257 52.551 48.4348C50.8842 48.7051 46.2891 52.3767 41.4237 53.0074C35.9727 53.6606 29.7334 51.5658 30.5218 52.3316C41.4913 64.54 41.9869 70.6442 50.6589 72.739C61.5158 75.2393 71.0438 66.5898 71.0889 63.4814Z" fill="#43864A"/>
<path id="Vector_172" fill-rule="evenodd" clip-rule="evenodd" d="M188.015 31.5863C187.091 32.7801 174.432 2.41669 158.62 -9.27366C140.082 -22.9912 115.147 -15.4004 99.0871 -1.23232C81.9683 13.9719 74.4226 35.9561 77.058 26.9687C83.5226 4.82684 103.48 -14.6346 128.865 -20.1756C155.467 -25.8744 179.974 1.80853 188.015 31.5863Z" fill="#6B3917"/>
<path id="Vector_173" fill-rule="evenodd" clip-rule="evenodd" d="M179.433 10.6832C185.425 16.0216 205.066 8.22803 199.075 32.8701C198.084 37.1048 201.575 45.7318 204.773 49.5835C202.251 51.0927 196.755 50.9575 191.101 49.4709C177.113 45.7768 169.86 34.9649 172.608 19.5355C174.05 11.5392 179.433 10.6832 179.433 10.6832Z" fill="#43864A"/>
<path id="Vector_174" fill-rule="evenodd" clip-rule="evenodd" d="M90.1225 6.89895C87.2843 15.5259 94.6049 25.8648 102.714 27.6217C104.313 27.9596 109.561 26.2702 114.201 27.5767C119.405 28.9957 124.518 33.2304 124.022 32.2168C117.558 16.945 118.842 11.1336 111.566 5.97544C102.353 -0.308964 91.1361 4.03831 90.1225 6.89895Z" fill="#43864A"/>
<path id="Vector_175" fill-rule="evenodd" clip-rule="evenodd" d="M45.9061 1.60565C17.9304 -9.07109 -20.7447 -29.5686 -8.85158 -62.0944C-0.247126 -85.3174 25.3185 -91.4441 21.3316 -88.8313C9.59619 -81.0377 -23.4476 -61.6664 2.02788 -29.5911C12.2541 -16.752 34.6437 -10.3775 43.4059 -3.66514C44.8474 -2.60648 44.4645 1.06505 45.9061 1.60565Z" fill="#6B3917"/>
<path id="Vector_176" fill-rule="evenodd" clip-rule="evenodd" d="M62.7322 46.9931C50.3436 43.4342 16.2636 89.0243 32.7743 98.4171C72.6656 121.28 84.6263 53.3226 62.7322 46.9931Z" fill="#DCECE2"/>
<path id="Vector_177" fill-rule="evenodd" clip-rule="evenodd" d="M79.085 47.1508C70.2778 56.6788 106.835 100.872 121.499 88.8441C136.996 76.2528 129.495 57.2644 114.764 48.7501C101.925 41.2944 82.689 43.209 79.085 47.1508Z" fill="#DCECE2"/>
<path id="Vector_178" fill-rule="evenodd" clip-rule="evenodd" d="M82.5764 28.4327C84.1757 41.2943 143.033 34.5143 143.258 15.5034C143.799 -21.7976 81.1349 16.9901 82.5764 28.4327Z" fill="#DCECE2"/>
<path id="Vector_179" fill-rule="evenodd" clip-rule="evenodd" d="M77.3282 19.0173C88.9735 24.7386 112.219 -30.4696 95.9111 -40.2003C74.0621 -53.2421 63.1826 -21.8876 65.1423 0.0740061C66.0432 10.4354 73.972 17.3505 77.3282 19.0173Z" fill="#DCECE2"/>
<path id="Vector_180" fill-rule="evenodd" clip-rule="evenodd" d="M57.8669 22.0358C70.3681 18.4769 59.3085 -55.4269 32.6617 -38.5783C12.8174 -25.987 47.8884 24.964 57.8669 22.0358Z" fill="#DCECE2"/>
<path id="Vector_181" fill-rule="evenodd" clip-rule="evenodd" d="M49.5778 34.6272C53.9926 7.93539 -19.0326 -6.79581 -16.1044 32.9604C-14.3475 56.3186 47.8659 44.8535 49.5778 34.6272Z" fill="#DCECE2"/>
<path id="Vector_182" fill-rule="evenodd" clip-rule="evenodd" d="M91.4063 32.3971C86.9915 3.74563 47.5957 11.0662 46.4694 30.0095C44.2395 67.288 94.74 53.5929 91.4063 32.3971Z" fill="#B55A06"/>
</g>
<g id="Group 56852">
<g id="Group 56774">
<path id="Vector_183" d="M100.135 521.969C100.135 521.969 97.3279 518.587 97.2002 515.992C97.0998 513.95 99.9224 506.194 101.131 502.98C101.278 502.589 101.84 502.65 101.905 503.063L102.922 509.419C102.922 509.419 100.965 515.056 100.306 517.417C99.6463 519.778 100.54 521.245 100.54 521.245L100.135 521.969Z" fill="#E1DED9"/>
<path id="Vector_184" d="M100.476 521.756C100.476 521.756 99.4547 519.884 99.5398 517.098C99.6039 514.998 101.746 509.696 102.798 507.212C102.958 506.832 103.507 506.909 103.562 507.318L103.906 509.859C103.958 510.239 103.902 510.624 103.746 510.974C103.074 512.48 101.207 516.712 101.05 517.566C100.859 518.629 101.05 520.565 101.05 520.565L100.476 521.756Z" fill="#B4A99F"/>
</g>
<g id="Group_16">
<path id="Vector_185" d="M102.074 523.391C100.945 525.206 102.17 528.938 105.46 530.336C108.359 531.569 111.06 530.954 112.491 531.707C112.762 531.849 113.094 531.694 113.143 531.395C113.462 529.519 113.802 524.367 108.64 521.881C106.559 520.876 103.416 521.236 102.074 523.391Z" fill="#FFBA06"/>
<path id="Vector_186" opacity="0.2" d="M105.768 529.014C103.105 527.212 102.444 523.883 103.397 522.091C102.872 522.415 102.415 522.844 102.075 523.394C100.945 525.208 102.17 528.94 105.461 530.339C108.225 531.513 110.805 531.012 112.28 531.613C110.968 530.698 108.294 530.723 105.768 529.014Z" fill="black"/>
<g id="Group_17">
<path id="Vector_187" d="M94.3536 527.205C94.2893 527.222 94.218 527.223 94.1481 527.199C93.9597 527.139 93.8544 526.934 93.9152 526.745C94.6031 524.628 97.0465 523.25 97.1504 523.193C97.3231 523.096 97.5438 523.159 97.6404 523.332C97.7377 523.507 97.6743 523.725 97.5016 523.822C97.4789 523.836 95.2015 525.121 94.6021 526.966C94.5657 527.087 94.4697 527.174 94.3536 527.205Z" fill="#453C36"/>
</g>
<g id="Group_18">
<path id="Vector_188" d="M96.536 527.463C96.4915 527.474 96.4444 527.476 96.3953 527.471C96.1975 527.445 96.0592 527.265 96.0857 527.067C96.2878 525.548 97.784 523.601 97.8466 523.518C97.9686 523.36 98.194 523.332 98.3537 523.453C98.5109 523.575 98.5395 523.801 98.418 523.96C98.4047 523.98 96.9778 525.84 96.8003 527.164C96.781 527.309 96.6744 527.425 96.536 527.463Z" fill="#453C36"/>
</g>
<path id="Vector_189" d="M104.253 523.842C105.33 521.828 104.427 519.245 102.235 518.073C100.044 516.901 97.3938 517.584 96.3166 519.599C95.2394 521.614 96.1428 524.197 98.3344 525.369C100.526 526.54 103.176 525.857 104.253 523.842Z" fill="#FFBA06"/>
<path id="Vector_190" opacity="0.2" d="M104.275 523.066C103.756 524.037 102.871 524.698 101.848 524.99C101.628 524.602 100.965 523.532 100.335 523.447C99.5661 523.343 99.0919 523.925 99.0919 523.925C98.5332 523.797 98.0903 524.101 97.8745 524.294C96.6904 523.473 95.9803 522.206 95.8952 520.91C95.6715 522.625 96.5968 524.438 98.3337 525.365C100.525 526.537 103.173 525.854 104.252 523.84C104.603 523.182 104.744 522.464 104.697 521.754C104.637 522.204 104.499 522.649 104.275 523.066Z" fill="black"/>
<path id="Vector_191" d="M95.0282 519.304C95.7776 518.006 95.5659 516.48 94.5553 515.897C93.5447 515.313 92.1179 515.893 91.3684 517.191C90.6189 518.489 90.8306 520.014 91.8412 520.598C92.8518 521.181 94.2787 520.602 95.0282 519.304Z" fill="#453C36"/>
<g id="Group_19">
<path id="Vector_192" d="M93.5776 516.412C93.5701 516.414 93.5627 516.416 93.5553 516.418C93.3593 516.457 93.1691 516.331 93.1298 516.135C92.7913 514.456 91.4582 509.975 89.3959 509.405C89.2045 509.353 89.0926 509.152 89.1446 508.961C89.1991 508.769 89.397 508.658 89.5884 508.71C92.4972 509.514 93.7839 515.729 93.8361 515.993C93.8734 516.182 93.7579 516.364 93.5776 516.412Z" fill="#453C36"/>
</g>
<path id="Vector_193" d="M92.1778 516.861C91.0467 519.005 90.6577 522.515 92.672 523.628C94.4865 524.627 99.3598 518.936 97.3007 516.045C96.8215 515.373 96.0099 515.003 95.1867 515.054C94.0839 515.119 92.7761 515.724 92.1778 516.861Z" fill="#FFBA06"/>
<path id="Vector_194" opacity="0.2" d="M97.5677 517.16C96.5237 516.367 94.852 516.809 93.834 518.149C92.8159 519.489 92.8345 521.219 93.8785 522.012C94.3474 522.368 94.9386 522.469 95.5448 522.36C95.9676 521.932 96.3699 521.426 96.717 520.883C97.4134 519.717 97.8634 518.431 97.7586 517.328C97.6998 517.267 97.6375 517.212 97.5677 517.16Z" fill="black"/>
<g id="Group_20">
<path id="Vector_195" d="M94.8476 516.072C94.771 516.092 94.6878 516.088 94.6097 516.053C94.4265 515.973 94.346 515.761 94.4242 515.579C94.4439 515.534 96.3581 511.024 93.4974 506.407C93.3934 506.236 93.4455 506.016 93.6131 505.91C93.7814 505.806 94.0044 505.858 94.1102 506.025C97.1763 510.975 95.1716 515.67 95.0843 515.868C95.0383 515.973 94.9489 516.044 94.8476 516.072Z" fill="#453C36"/>
</g>
<path id="Vector_196" d="M97.5422 520.511C98.5607 519.172 98.5404 517.443 97.4968 516.649C96.4532 515.856 94.7815 516.298 93.763 517.638C92.7445 518.977 92.7648 520.706 93.8084 521.5C94.852 522.293 96.5237 521.851 97.5422 520.511Z" fill="#453C36"/>
<path id="Vector_197" d="M96.5854 519.266C97.2276 518.422 97.215 517.331 96.5571 516.831C95.8992 516.331 94.8453 516.61 94.203 517.455C93.5608 518.299 93.5735 519.389 94.2313 519.89C94.8892 520.39 95.9432 520.111 96.5854 519.266Z" fill="#322B27"/>
<path id="Vector_198" d="M95.5825 517.76C95.7732 517.509 95.7691 517.185 95.5735 517.037C95.3778 516.888 95.0646 516.971 94.8739 517.221C94.6832 517.472 94.6872 517.796 94.8829 517.945C95.0785 518.094 95.3918 518.011 95.5825 517.76Z" fill="#E1DED9"/>
<g id="Group_21">
<path id="Vector_199" d="M98.7255 530.544C98.6341 530.568 98.5358 530.558 98.4474 530.504C98.2769 530.402 98.2205 530.181 98.3231 530.011C99.6532 527.779 98.3548 524.811 98.3419 524.783C98.2613 524.601 98.3421 524.389 98.5244 524.308C98.7067 524.227 98.919 524.308 98.9997 524.49C99.0597 524.625 100.46 527.833 98.9418 530.383C98.8916 530.462 98.8144 530.52 98.7255 530.544Z" fill="#453C36"/>
</g>
<g id="Group_22">
<path id="Vector_200" d="M101.256 530.954C101.182 530.974 101.102 530.972 101.027 530.939C100.843 530.864 100.754 530.652 100.831 530.467C101.998 527.633 99.8523 524.895 99.8313 524.866C99.7077 524.711 99.7318 524.485 99.8886 524.358C100.043 524.235 100.27 524.259 100.396 524.415C100.496 524.54 102.827 527.517 101.501 530.74C101.451 530.852 101.36 530.926 101.256 530.954Z" fill="#453C36"/>
</g>
<path id="Vector_201" d="M108.64 521.881C108.128 521.634 107.549 521.469 106.952 521.393C106.719 522.372 106.136 523.775 104.908 525.389C104.069 526.49 103.248 527.277 102.529 527.819C102.965 528.526 103.566 529.186 104.323 529.709C105.272 528.951 106.185 528 106.976 526.959C108.096 525.485 108.98 523.824 109.403 522.288C109.162 522.149 108.907 522.01 108.64 521.881Z" fill="#453C36"/>
<path id="Vector_202" opacity="0.2" d="M103.728 526.756C103.307 527.184 102.904 527.536 102.529 527.819L102.53 527.821C102.582 527.906 102.636 527.989 102.692 528.072C102.697 528.081 102.705 528.09 102.71 528.099C102.762 528.173 102.816 528.248 102.87 528.321C102.882 528.336 102.891 528.35 102.903 528.365C102.955 528.431 103.007 528.496 103.062 528.561C103.078 528.58 103.093 528.598 103.109 528.617C103.159 528.678 103.212 528.738 103.267 528.794C103.286 528.816 103.305 528.837 103.327 528.858C103.379 528.913 103.433 528.967 103.487 529.022C103.509 529.045 103.534 529.067 103.556 529.091C103.609 529.142 103.666 529.194 103.723 529.242C103.748 529.264 103.773 529.287 103.797 529.309C103.856 529.362 103.92 529.411 103.983 529.461C104.007 529.478 104.028 529.499 104.051 529.517C104.138 529.583 104.227 529.65 104.318 529.713C104.687 529.418 105.048 529.096 105.403 528.749C104.677 528.176 104.12 527.488 103.728 526.756Z" fill="black"/>
<path id="Vector_203" d="M112.685 526.099C112.311 525.148 111.728 524.205 110.843 523.372C110.668 524.351 110.097 525.887 108.734 527.679C107.681 529.066 106.649 529.951 105.82 530.483C106.975 530.918 108.091 531.08 109.1 531.17C109.694 530.6 110.268 529.954 110.8 529.252C111.581 528.225 112.222 527.145 112.685 526.099Z" fill="#453C36"/>
<path id="Vector_204" opacity="0.2" d="M106.897 529.668C106.514 530.001 106.152 530.27 105.823 530.483C106.977 530.918 108.093 531.079 109.102 531.169C109.275 531.004 109.445 530.828 109.615 530.65C108.768 530.414 107.837 530.134 106.897 529.668Z" fill="black"/>
</g>
<g id="Group 56773_2">
<path id="Vector_205" d="M105.496 518.012C104.241 518.523 103.39 519.182 102.816 519.757C103.071 519.395 103.39 519.033 103.794 518.693C104.876 517.765 111.349 514.468 112.523 513.872C112.639 513.814 112.719 513.704 112.741 513.576L113.513 509.076C113.576 508.714 113.166 508.46 112.87 508.679C112.854 508.691 112.837 508.703 112.82 508.716C112.306 509.096 111.578 508.721 111.592 508.082L111.684 503.835C111.692 503.464 111.249 503.272 110.991 503.539C108.729 505.877 101.835 513.128 101.178 515.311C100.391 517.927 100.965 522.011 100.965 522.011L101.433 521.458C101.39 521.671 101.369 521.798 101.369 521.798L102.029 521.139C102.029 521.139 102.071 521.054 102.135 520.926L102.496 520.735C102.496 520.735 103.007 520.331 103.985 519.884C104.853 519.488 112.349 517.602 114.031 517.181C114.248 517.127 114.43 516.99 114.545 516.798L115.289 515.563C115.478 515.248 115.192 514.877 114.839 514.982C112.71 515.617 107.654 517.149 105.496 518.012Z" fill="#E1DED9"/>
<path id="Vector_206" opacity="0.65" d="M101.391 521.756C101.391 521.756 101.773 519.352 102.922 517.183C103.867 515.398 110.544 510.372 112.88 508.648C113.175 508.43 113.577 508.685 113.515 509.046L112.741 513.576C112.719 513.704 112.639 513.814 112.522 513.872C111.345 514.466 104.876 517.746 103.794 518.693C102.603 519.714 102.05 521.097 102.05 521.097L101.391 521.756Z" fill="#B4A99F"/>
</g>
</g>
</g>
</g>
<defs>
<radialGradient id="paint0_radial_419_44949" cx="0" cy="0" r="1" gradientUnits="userSpaceOnUse" gradientTransform="translate(-13.9999 1130) rotate(90) scale(493)">
<stop stop-color="#FF9B36"/>
<stop offset="0.492476" stop-color="#FF6025"/>
<stop offset="1" stop-color="#212121" stop-opacity="0"/>
</radialGradient>
<radialGradient id="paint1_radial_419_44949" cx="0" cy="0" r="1" gradientUnits="userSpaceOnUse" gradientTransform="translate(-14 500) rotate(90) scale(152.465)">
<stop stop-color="#FF9B36"/>
<stop offset="0.492476" stop-color="#FF6025"/>
<stop offset="1" stop-color="#212121" stop-opacity="0"/>
</radialGradient>
<radialGradient id="paint2_radial_419_44949" cx="0" cy="0" r="1" gradientUnits="userSpaceOnUse" gradientTransform="translate(374 252) rotate(90) scale(190.809)">
<stop stop-color="#FF9B36"/>
<stop offset="0.492476" stop-color="#FF6025"/>
<stop offset="1" stop-color="#212121" stop-opacity="0"/>
</radialGradient>
</defs>
</svg>
