<svg width="24" height="24" viewBox="0 0 24 24" fill="none" xmlns="http://www.w3.org/2000/svg">
<g id="WanBridge" opacity="0.5">
<g id="Group 56759">
<path id="Fill-1" fill-rule="evenodd" clip-rule="evenodd" d="M4.85162 6.48193L8.11142 17.5779H10.6771L7.41823 6.48193H4.85162Z" fill="none"/>
<path id="Fill-2" opacity="0.3" fill-rule="evenodd" clip-rule="evenodd" d="M9.73731 10.6327C4.89504 10.6327 0.970337 13.7421 0.970337 17.5785H5.46601C5.46601 14.3577 8.23328 11.6505 11.9856 10.8637C11.2678 10.7137 10.5144 10.6327 9.73731 10.6327Z" fill="none"/>
<path id="Fill-4" fill-rule="evenodd" clip-rule="evenodd" d="M14.2332 10.6327C13.4561 10.6327 12.7027 10.7137 11.9858 10.8637C15.7381 11.6505 18.5045 14.3577 18.5045 17.5785H23.0002C23.0002 13.7421 19.0755 10.6327 14.2332 10.6327Z" fill="none"/>
<path id="Fill-6" opacity="0.3" fill-rule="evenodd" clip-rule="evenodd" d="M13.2321 17.5783H15.7987L19.0576 6.48132H16.491L13.2321 17.5783Z" fill="none"/>
<path id="Fill-8" fill-rule="evenodd" clip-rule="evenodd" d="M15.7861 17.5784H13.2249L10.6765 8.90344H13.2386L15.7861 17.5784Z" fill="none"/>
<path id="Fill-10" opacity="0.3" fill-rule="evenodd" clip-rule="evenodd" d="M8.12251 17.5784H10.6846L13.232 8.90344H10.67L8.12251 17.5784Z" fill="none"/>
</g>
</g>
</svg>
