<svg width="24" height="24" viewBox="0 0 24 24" fill="none" xmlns="http://www.w3.org/2000/svg">
<g id="Docs">
<path id="Vector" d="M12 8.4V3H6.6C6.12261 3 5.66478 3.18964 5.32721 3.52721C4.98965 3.86477 4.8 4.32261 4.8 4.8V19.2C4.8 19.6774 4.98965 20.1352 5.32721 20.4728C5.66478 20.8104 6.12261 21 6.6 21H17.4C17.8774 21 18.3352 20.8104 18.6728 20.4728C19.0104 20.1352 19.2 19.6774 19.2 19.2V10.2H13.8C13.3226 10.2 12.8648 10.0104 12.5272 9.67279C12.1896 9.33523 12 8.87739 12 8.4ZM8.625 11.55H15.375C15.554 11.55 15.7257 11.6211 15.8523 11.7477C15.9789 11.8743 16.05 12.046 16.05 12.225C16.05 12.404 15.9789 12.5757 15.8523 12.7023C15.7257 12.8289 15.554 12.9 15.375 12.9H8.625C8.44598 12.9 8.27429 12.8289 8.14771 12.7023C8.02112 12.5757 7.95 12.404 7.95 12.225C7.95 12.046 8.02112 11.8743 8.14771 11.7477C8.27429 11.6211 8.44598 11.55 8.625 11.55ZM8.625 14.025H15.375C15.554 14.025 15.7257 14.0961 15.8523 14.2227C15.9789 14.3493 16.05 14.521 16.05 14.7C16.05 14.879 15.9789 15.0507 15.8523 15.1773C15.7257 15.3039 15.554 15.375 15.375 15.375H8.625C8.44598 15.375 8.27429 15.3039 8.14771 15.1773C8.02112 15.0507 7.95 14.879 7.95 14.7C7.95 14.521 8.02112 14.3493 8.14771 14.2227C8.27429 14.0961 8.44598 14.025 8.625 14.025ZM8.625 16.5H15.375C15.554 16.5 15.7257 16.5711 15.8523 16.6977C15.9789 16.8243 16.05 16.996 16.05 17.175C16.05 17.354 15.9789 17.5257 15.8523 17.6523C15.7257 17.7789 15.554 17.85 15.375 17.85H8.625C8.44598 17.85 8.27429 17.7789 8.14771 17.6523C8.02112 17.5257 7.95 17.354 7.95 17.175C7.95 16.996 8.02112 16.8243 8.14771 16.6977C8.27429 16.5711 8.44598 16.5 8.625 16.5ZM13.35 8.4V3.45L18.75 8.85H13.8C13.6807 8.85 13.5662 8.80259 13.4818 8.7182C13.3974 8.63381 13.35 8.51935 13.35 8.4Z" fill="none"/>
</g>
</svg>
