<svg width="24" height="24" viewBox="0 0 24 24" fill="none" xmlns="http://www.w3.org/2000/svg">
<g id="Farming">
<g id="Union">
<path d="M14.6151 8.28208L21.5451 4.28102C22.1275 3.9448 22.3266 3.20158 21.9926 2.61086C21.6481 2.02627 20.9048 1.82712 20.3225 2.16335L13.3924 6.1644L11.7877 3.38497C11.4432 2.80037 10.6999 2.60123 10.1176 2.93745C9.53299 3.28203 9.33384 4.02525 9.67007 4.60761L14.1021 12.2842C14.4384 12.8665 15.1899 13.0679 15.7723 12.7317C16.3569 12.3871 16.556 11.6439 16.2198 11.0615L14.6151 8.28208Z" fill="white"/>
<path d="M5.77456 5.18378L11.6616 15.3804C11.9978 15.9628 12.7494 16.1641 13.3317 15.8279C13.9163 15.4833 14.1155 14.7401 13.7792 14.1578L7.89223 3.96114C7.54766 3.37654 6.80444 3.17739 6.22208 3.51362C5.63748 3.8582 5.43833 4.60142 5.77456 5.18378Z" fill="white"/>
<path d="M3.60787 6.89809C4.19023 6.56186 4.93345 6.76101 5.27803 7.34561L9.7101 15.0222C10.0463 15.6045 9.84718 16.3478 9.26258 16.6923C9.19905 16.729 9.13776 16.7574 9.07871 16.7773C8.61014 16.9561 8.21434 17.2976 8.02834 17.7579C7.90603 18.0473 7.82876 18.4025 7.77533 18.8357C7.74516 19.0976 7.74308 19.3657 7.74096 19.64C7.73737 20.1024 7.73366 20.5822 7.59499 21.0787C7.39645 21.7863 6.79575 22.0907 6.36986 21.9766C5.66615 21.797 5.45847 21.3028 5.61482 20.4855C5.6921 20.0789 5.95094 19.5952 6.22239 19.0878C6.25803 19.0212 6.29388 18.9542 6.32956 18.8869C6.74763 18.0949 6.9948 17.2393 7.05929 16.3973C7.0881 16.056 6.66953 15.8812 6.42643 16.1204L6.41584 16.1265C6.0512 16.4852 5.44994 16.3241 5.27894 15.8934C5.16868 15.6188 5.28477 15.1571 5.38608 14.7543C5.43272 14.5688 5.47623 14.3958 5.49307 14.2592C5.58917 13.5331 5.52464 13.0057 5.28371 12.3683C5.17324 12.0791 5.04158 11.8022 4.8804 11.5352L3.1687 8.57049C2.82413 7.98589 3.02551 7.23432 3.60787 6.89809Z" fill="none"/>
</g>
</g>
</svg>
