<svg width="24" height="24" viewBox="0 0 24 24" fill="none" xmlns="http://www.w3.org/2000/svg">
<g id="FIFA" opacity="0.5">
<path id="Vector" d="M12 4C16.4184 4 20 7.5816 20 12C20 16.4184 16.4184 20 12 20C7.5816 20 4 16.4184 4 12C4 7.5816 7.5816 4 12 4ZM13.336 15.2H10.664L9.56 16.7176L10.0032 18.0824C10.6477 18.2935 11.3218 18.4007 12 18.4C12.6968 18.4 13.368 18.288 13.9968 18.0824L14.4392 16.7176L13.3352 15.2H13.336ZM6.6352 11.0976L5.6016 11.8472L5.6 12C5.6 13.384 6.0392 14.6648 6.7856 15.712H8.3136L9.372 14.256L8.5496 11.72L6.6352 11.0976V11.0976ZM17.3648 11.0976L15.4504 11.72L14.628 14.256L15.6856 15.712H17.2136C17.9871 14.6289 18.4019 13.3309 18.4 12L18.3976 11.8472L17.3648 11.0976V11.0976ZM13.832 5.8664L12.8 6.6184V8.632L14.9552 10.1976L16.7464 9.616L17.1896 8.2536C16.3637 7.1103 15.1839 6.27124 13.8328 5.8664H13.832ZM10.1664 5.8664C8.81523 6.27145 7.63537 7.1108 6.8096 8.2544L7.2528 9.616L9.044 10.1976L11.2 8.632V6.6184L10.1672 5.8664H10.1664Z" fill="white"/>
</g>
</svg>
