<svg width="20" height="20" viewBox="0 0 20 20" fill="none" xmlns="http://www.w3.org/2000/svg">
<g id="Github">
<rect id="Rectangle 5" width="20" height="20" fill="#C4C4C4" fill-opacity="0.01"/>
<path id="Vector" d="M16.5467 4.65918C16.6238 4.45372 16.6824 4.24176 16.7217 4.02585C16.8378 3.23601 16.737 2.42947 16.43 1.69252C16.43 1.69252 15.4967 1.40085 13.355 2.84252C12.4458 2.59146 11.5066 2.46531 10.5634 2.46752C9.61742 2.46586 8.67557 2.592 7.76338 2.84252C5.62171 1.38418 4.68838 1.69252 4.68838 1.69252C4.38511 2.42167 4.28435 3.21918 4.39671 4.00085C4.43626 4.22574 4.49766 4.44623 4.58005 4.65918C4.50505 4.74252 4.43005 4.83418 4.36338 4.91752C3.74153 5.69753 3.41144 6.67013 3.43005 7.66752C3.42807 7.90406 3.4392 8.14053 3.46338 8.37585C3.73005 12.0675 6.18838 12.9258 8.53005 13.1925C8.19861 13.5007 7.97388 13.9064 7.88838 14.3508C7.81093 14.6473 7.77448 14.9529 7.78005 15.2592V16.3508C6.84755 16.4342 5.89088 16.2983 5.59421 15.4667C5.27576 14.6707 4.74761 13.9758 4.06588 13.4558C4.01606 13.4289 3.96866 13.3977 3.92421 13.3625C3.86435 13.2052 3.75829 13.0697 3.61997 12.9737C3.48165 12.8778 3.31754 12.826 3.14921 12.825H3.14505C2.92475 12.825 2.71342 12.9122 2.55726 13.0676C2.4011 13.223 2.31281 13.4339 2.31171 13.6542C2.30921 14.3308 2.98671 14.7683 3.26421 14.9167C3.58843 15.2434 3.84923 15.6274 4.03338 16.0492C4.33671 16.9017 5.22421 18.1975 7.75505 18.0292L7.75671 18.1108L7.76005 18.3342C7.76005 18.5552 7.84784 18.7672 8.00412 18.9234C8.16041 19.0797 8.37237 19.1675 8.59338 19.1675H12.5217C12.7427 19.1675 12.9547 19.0797 13.111 18.9234C13.2672 18.7672 13.355 18.5552 13.355 18.3342C13.355 18.3342 13.3617 15.7008 13.3617 15.2592C13.3673 14.9529 13.3308 14.6473 13.2534 14.3508L13.2517 14.3458L13.255 14.3508C13.2475 14.3217 13.2367 14.2983 13.2284 14.27C13.1355 13.8571 12.9207 13.4817 12.6117 13.1925L12.6217 13.21L12.605 13.1933C14.9467 12.9267 17.3884 12.0517 17.655 8.37668C17.6792 8.14137 17.6904 7.90489 17.6884 7.66835C17.7032 6.67294 17.3767 5.70164 16.7634 4.91752C16.6957 4.8277 16.6234 4.74147 16.5467 4.65918Z" fill="white"/>
</g>
</svg>
