<svg width="24" height="24" viewBox="0 0 24 24" fill="none" xmlns="http://www.w3.org/2000/svg">
<g id="Pool">
<path id="Vector" d="M14.9556 10.6224C15.4433 9.41467 14.5511 7.83467 13.6111 6.838C13.9756 5.51578 14.0233 3.70244 13.0267 2.86578C12.03 2.028 10.2522 2.388 9.01223 2.97467C7.86778 2.21911 6.15889 1.61244 5.05334 2.30133C3.94889 2.99022 3.74223 4.79355 3.91667 6.15356C2.84556 7.008 1.74 8.44689 2.05445 9.71022C2.36889 10.9736 4.01889 11.728 5.36556 11.9813C5.84778 13.2647 6.87445 14.7602 8.17334 14.8524C9.09334 14.9169 9.97334 14.2624 10.6444 13.4491C12 15.138 12.9578 16.9236 13.4833 18.678C12.68 17.478 11.0167 16.4447 7.55556 16.4447C7.55556 21.0613 10.9356 22.0036 13.1111 22.0036L16.6667 22.0058C16.6667 18.9802 15.5711 15.4391 13.0111 12.1158C13.8811 11.8413 14.6545 11.3636 14.9556 10.6224ZM10.0922 10.378C9.78924 10.567 9.45198 10.6945 9.09972 10.7532C8.74746 10.8119 8.38708 10.8007 8.03917 10.7201C7.69126 10.6395 7.36263 10.4912 7.07204 10.2836C6.78145 10.076 6.53459 9.81321 6.34556 9.51022C6.15653 9.20723 6.02903 8.86998 5.97033 8.51772C5.91164 8.16545 5.92291 7.80508 6.00349 7.45717C6.08407 7.10926 6.23239 6.78062 6.43997 6.49003C6.64756 6.19944 6.91035 5.95259 7.21334 5.76356C7.82525 5.38194 8.5637 5.25903 9.26623 5.42188C9.96876 5.58472 10.5778 6.01998 10.9595 6.63189C11.3411 7.2438 11.464 7.98225 11.3011 8.68478C11.1383 9.38731 10.703 9.99638 10.0911 10.378H10.0922ZM16.4667 14.498C17.67 16.9091 18.3211 19.4458 18.3311 21.948C21.9956 19.3136 22 14.4513 22 9.78133C22 9.78133 17.9222 10.9302 16.4667 14.498V14.498Z" fill="none"/>
</g>
</svg>
