<svg width="24" height="24" viewBox="0 0 24 24" fill="none" xmlns="http://www.w3.org/2000/svg">
<g id="Swap">
<path id="Vector" d="M12.1564 5.47802L9.0514 2.38417C8.82882 2.17272 8.48382 2.17272 8.26124 2.38417L5.15627 5.47802C4.80014 5.82302 5.05611 6.42398 5.54578 6.42398L7.54899 6.42398L7.54899 13.1125C7.54899 13.7246 8.04979 14.2254 8.66188 14.2254C9.27398 14.2254 9.77478 13.7246 9.77478 13.1125L9.77478 6.42398L11.7669 6.42398C12.2677 6.42398 12.5125 5.82302 12.1564 5.47802V5.47802ZM15.7288 21.6261L18.8337 18.5323C19.1899 18.1873 18.9339 17.5863 18.4442 17.5863L16.4521 17.5863L16.4521 10.8867C16.4521 10.2746 15.9513 9.77379 15.3393 9.77379C14.7272 9.77379 14.2264 10.2746 14.2264 10.8867L14.2264 17.5752L12.2343 17.5752C11.7335 17.5752 11.4886 18.1761 11.8448 18.5211L14.9497 21.615C15.1612 21.8376 15.5173 21.8376 15.7288 21.6261V21.6261Z" fill="none"/>
</g>
</svg>
