<svg width="26" height="26" viewBox="0 0 26 26" fill="none" xmlns="http://www.w3.org/2000/svg">
<g id="&#229;&#133;&#179;&#233;&#151;&#173;&#230;&#140;&#137;&#233;&#146;&#174;&#229;&#164;&#135;&#228;&#187;&#189;">
<rect id="&#231;&#159;&#169;&#229;&#189;&#162;" opacity="0.01" width="26" height="26" fill="black"/>
<path id="&#232;&#183;&#175;&#229;&#190;&#132;" d="M14.3154 13L20.9805 5.05527C21.0922 4.92324 20.9983 4.72266 20.8256 4.72266H18.7994C18.6801 4.72266 18.5658 4.77598 18.4871 4.86738L12.99 11.4207L7.49298 4.86738C7.41681 4.77598 7.30255 4.72266 7.18067 4.72266H5.1545C4.98184 4.72266 4.8879 4.92324 4.99962 5.05527L11.6647 13L4.99962 20.9447C4.8879 21.0768 4.98184 21.2773 5.1545 21.2773H7.18067C7.30001 21.2773 7.41427 21.224 7.49298 21.1326L12.99 14.5793L18.4871 21.1326C18.5633 21.224 18.6775 21.2773 18.7994 21.2773H20.8256C20.9983 21.2773 21.0922 21.0768 20.9805 20.9447L14.3154 13Z" fill="white"/>
</g>
</svg>
