<?xml version="1.0" encoding="utf-8"?>
<!-- Generator: Adobe Illustrator 23.0.1, SVG Export Plug-In . SVG Version: 6.00 Build 0)  -->
<svg version="1.1" id="Layer_1" xmlns="http://www.w3.org/2000/svg" xmlns:xlink="http://www.w3.org/1999/xlink" x="0px" y="0px"
	 viewBox="0 0 1000 1000" style="enable-background:new 0 0 1000 1000;" xml:space="preserve">
<style type="text/css">
	.st0{fill:#FFE600;}
	.st1{fill:#FFFFFF;}
</style>
<g>
	<polygon class="st0" points="589.5,565.1 500,652.5 410.5,565.1 344.3,500.5 344.3,629.7 500,781.7 655.7,629.7 655.7,500.5 	"/>
	<g>
		<path class="st1" d="M1000,779.6V523.4L569.7,213.1l85.9-83.9V0l-66.2,64.6L500,152l-89.5-87.4L344.3,0v129.2l85.9,83.9L0,523.4
			v256.2l406.6-404.2v104.4L500,571l93.4-91.2V375.4L1000,779.6z M419.2,363l80.8-78.9l80.8,78.9L500,441.8L419.2,363z"/>
		<polygon class="st1" points="500,870.8 410.5,783.4 406.6,779.6 406.6,908.8 500,1000 593.4,908.8 593.4,779.6 589.5,783.4 		"/>
	</g>
</g>
</svg>
