<svg width="126" height="126" viewBox="0 0 126 126" fill="none" xmlns="http://www.w3.org/2000/svg">
<g id="183">
<circle id="Ellipse 5" cx="63" cy="63" r="63" fill="#212121"/>
<g id="WASP">
<path id="Vector" d="M70.5178 68.4739L62.9998 75.8099L55.4818 68.4739L49.9238 63.0419V73.8919L62.9998 86.6599L76.0758 73.8919V63.0419L70.5178 68.4739Z" fill="#00A045"/>
<g id="Group">
<path id="Vector_2" d="M105 86.492V64.96L68.852 38.906L76.076 31.864V21L70.518 26.432L63 33.768L55.482 26.432L49.924 21V31.85L57.148 38.892L21 64.96V86.492L55.16 52.542V61.32L63 68.978L70.84 61.32V52.542L105 86.492ZM56.21 51.492L63 44.87L69.79 51.492L63 58.114L56.21 51.492Z" fill="#FFE600"/>
<path id="Vector_3" d="M62.9997 94.1498L55.4817 86.7998L55.1597 86.4918V97.3418L62.9997 105L70.8397 97.3418V86.4918L70.5177 86.7998L62.9997 94.1498Z" fill="#00A045"/>
</g>
</g>
</g>
</svg>
